<?xml version="1.0" encoding="utf-8"?>
<!-- Generator: Adobe Illustrator 22.0.1, SVG Export Plug-In . SVG Version: 6.00 Build 0)  -->
<svg version="1.1" id="Layer_1" xmlns="http://www.w3.org/2000/svg" xmlns:xlink="http://www.w3.org/1999/xlink" x="0px" y="0px"
	 viewBox="0 0 1288.2 667.8" style="enable-background:new 0 0 1288.2 667.8;" xml:space="preserve">
<style type="text/css">
	.st0{fill:#1F2020;}
	.st1{fill:none;stroke:#1F2020;stroke-width:3;stroke-miterlimit:10;}
	.st2{fill:#202020;}
</style>
<title>Asset 2</title>
<g>
	<g>
		<path class="st0" d="M68.3,169.3c0,112.2,0,224.6,0,336.8c0,30,0,60.2,0,90.3c0,2.1,3,2.1,3,0c0-112.2,0-224.6,0-336.8
			c0-30,0-60.2,0-90.3C71.3,167,68.3,167,68.3,169.3L68.3,169.3z"/>
	</g>
</g>
<g>
	<g>
		<path class="st0" d="M257.9,616.7c55.1,0,110.1,0,165.1,0c56.7,0,113.4,0,170.1,0c57,0,113.9,0,170.8,0c56.9,0,113.7,0,170.6,0
			c55.3,0,110.7,0,166,0c6.8,0,13.6,0,20.3,0c1.6,0,1.6-3.7,0-3.7c-55.2,0-110.3,0-165.5,0c-56.7,0-113.5,0-170.2,0
			c-57,0-113.9,0-170.8,0c-56.8,0-113.6,0-170.4,0c-55.2,0-110.6,0-165.8,0c-6.8,0-13.6,0-20.3,0C256.3,613,256.3,616.7,257.9,616.7
			L257.9,616.7z"/>
	</g>
</g>
<g>
	<g>
		<path class="st0" d="M78.1,612.1c5,0,10,0,15.1,0c5.2,0,10.3,0,15.5,0c5.2,0,10.4,0,15.6,0c5.2,0,10.4,0,15.6,0
			c5.1,0,10.1,0,15.2,0c0.6,0,1.2,0,1.9,0c0.1,0,0.1-3.2,0-3.2c-5,0-10.1,0-15.1,0c-5.2,0-10.4,0-15.5,0c-5.2,0-10.4,0-15.6,0
			c-5.2,0-10.4,0-15.6,0c-5,0-10.1,0-15.1,0c-0.6,0-1.2,0-1.9,0C78,608.9,78,612.1,78.1,612.1L78.1,612.1z"/>
	</g>
</g>
<line class="st1" x1="1130.3" y1="614.8" x2="1142.3" y2="614.8"/>
<path class="st1" d="M1105,81.7c64.7,0.1,102.3,0.2,102.3,0.2V381"/>
<g>
	<g>
		<path class="st0" d="M794.5,77.6c-75.1,0-150.2,0-225.3,0c-78.1,0-156.2,0-234.3,0c-41.6,0-83.2,0-124.6,0c-2.1,0-2.1,1.9,0,1.9
			c75.1,0,150.2,0,225.3,0c78.1,0,156.2,0,234.3,0c41.6,0,83.2,0,124.6,0C796.6,79.5,796.6,77.6,794.5,77.6L794.5,77.6z"/>
	</g>
</g>
<circle class="st1" cx="69.3" cy="609.8" r="10"/>
<path class="st2" d="M194.5,675c19.5-19.5,38.3-38.1,57.8-56.2c-4-1.4-8.2-1-12.1-1.7c-0.6-0.1-1.8,0.1-1.9,0.4
	c-1.1,3.8-6.9,2.7-8.5,6.6c-1.3,3.1-4.8,5.5-7.4,8.3c-6.1,6.3-12.4,12.5-18.5,18.9c-4.7,4.9-9.3,9.9-14.1,14.8
	c-2.7,2.7-5.3,5.3-7.9,8.1c-1.4,1.5-3.7,0.4-5.9,0.8c1.6-2.9,4.2-4.6,6.2-6.9c3.6-3.9,7.6-7.5,11.2-11.4c4.4-4.7,9.4-9.1,13.8-13.7
	c4.7-5.1,9.7-9.8,14.6-14.8c3.4-3.3,6.6-6.9,10-9.9c0.7-0.6,0.9-1.4,0.6-2.2c-0.7-4.7-3.8-8.9-4.2-13.7c-0.2-1.9-2.4-1.3-3.2-1.3
	c-6.2,0.5-12.5,0.3-18.6,0.3c-0.4,0-1,0.2-1.3,0c-3-1.9-4.5,0.3-5.9,1.8c-4.2,4.9-9.2,9.2-13.9,13.6c-8.4,7.8-16.7,15.7-25.3,23.4
	c-7.8,7.1-15.6,13.9-23.2,21c-4.3,3.9-8.6,7.6-12.9,11.5c-2.9,2.7-3.7,2.9-10.9,2l8.4-7.5c4.1-3.6,8-7.5,12.3-11
	c4.3-3.3,8.5-7.3,12.7-11.1c4-3.4,7.9-7.2,11.9-10.6c7.5-6.4,14.6-13.1,22.2-19.4c4.3-3.5,8.6-7.2,12.7-11c0.5-0.7,1.2-1.1,2-1.5
	c2.3-0.8,2.8-2.4,2.2-4.4c-1.6-4.8-3.5-9.6-3.5-14.8c0-0.4-0.3-0.7-0.6-0.9c-0.8-0.4-1.1,0.3-1.6,0.7c-4.7,4.2-9.5,8.3-14.2,12.4
	c-7,6.1-13.6,12.4-20.8,18.3c-7.4,6-14.4,12.4-21.7,18.6c-5.8,5.1-11.7,10.1-17.3,15.4c-5.4,5-11.5,9.4-17,14.3
	c-3.4,3.1-7.2,5.9-10.4,9.3c-2.4,2.4-4.9,4.3-9,3.1c1.2-3.1,4.7-4.7,7.1-7.2c4.5-4.4,9.5-8.5,14.2-12.7c5.4-5,11.3-9.6,16.8-14.4
	c5.4-4.7,10.8-9.4,16.1-14.2c5.6-5,11.2-9.9,16.8-15c5.9-5.2,12-10.3,17.9-15.6c6.9-6,13.7-12,20.4-18.1c5-4.6,11.7-7.1,17.9-10
	c5.7-2.8,11.6-5.2,17.3-8c6.1-3,12.5-5.4,18.5-8.4c8.8-4.2,18-7.7,26.9-11.9c3.4-1.8,6.9-3.2,10.5-4.6c3.3-1,4.2-0.6,4.2,2.4
	c0,4-1.7,7.6-2.8,11.4c-1.5,5.8-3.6,11.6-5.5,17.5c-2.3,7.1-4.6,14-7.1,21.1c-1.9,5.8-4.3,11.5-6.1,17.4c-1.3,4.4-3.5,8.5-4.1,13
	c-0.1,0.7-0.6,1.1-1.2,1.3c-5.6,1.5-7.5,6.3-10.9,9.7c-8.2,8-15.8,16.5-24,24.5c-3.5,3.3-6.5,7.1-9.8,10.5c-3.6,3.6-7.2,7.3-11,10.7
	C201.2,675.8,198,674,194.5,675z M196.7,580.3c-0.7,1.4,0.3,2.7,0.4,3.9c0.3,4.3,1.8,8.4,3.2,12.4c0.4,1.3,1.2,1.9,3.4,1.7
	c8-1.1,16.2-0.9,24.3-1.2c1.3-0.1,3.3,0.5,2.6,2.5c-0.3,0.7,0.1,1.3,0.4,1.9c1.2,3.8,4.2,7,5.2,10.8c0.4,1.7,1.2,2.1,3.4,2.2
	c4.3,0.3,8.7-0.3,12.9,0.5c2.4,0.5,2.5-0.3,2.9-1.6c1.9-5.9,3.9-11.8,6-17.6c3-8.3,5.9-16.4,8.9-24.6c0.9-2.4,1.7-4.2-2.5-5.2
	c-7.2-1.8-13.2-6-16.6-11.8c-0.8-1.3-1.9-1.3-3.5-0.6c-6.7,3.1-13.4,5.9-20.2,8.8c-9.4,4.1-18.9,8.2-28.6,11.9
	c-2.2,0.8-4.3,1.8-2.3,4.4C196.9,578.9,196.7,579.7,196.7,580.3L196.7,580.3z"/>
</svg>
