<?xml version="1.0" encoding="utf-8"?>
<!-- Generator: Adobe Illustrator 25.3.1, SVG Export Plug-In . SVG Version: 6.00 Build 0)  -->
<svg version="1.1" id="Layer_1" xmlns="http://www.w3.org/2000/svg" xmlns:xlink="http://www.w3.org/1999/xlink" x="0px" y="0px"
	 viewBox="0 0 1920 315.1" style="enable-background:new 0 0 1920 315.1;" xml:space="preserve">
<style type="text/css">
	.st0{fill:#23B3DC;}
	.st1{fill:#F6D22B;}
	.st2{fill:#3979BA;}
	.st3{fill:#78C04D;}
	.st4{fill:#673C87;}
	.st5{fill:#D83339;}
	.st6{fill:#EE6534;}
	.st7{fill:#ED6536;}
	.st8{fill:#F6D22C;}
	.st9{fill:#77C04F;}
	.st10{fill:#D8343A;}
	.st11{fill:#3B78BB;}
	.st12{fill:#673D88;}
</style>
<g>
	<rect x="256" y="189.1" class="st0" width="11.2" height="15.5"/>
	<path d="M367.5,173.1c-0.3-4.4-0.3-8.8-0.9-13.2c-0.7-5.7-0.7-11.6-0.7-17.4c-0.1-4.4-2.3-8.4-2.1-12.9c-3.8-3.3-3.6-8.4-5.5-12.6
		c-3.4-7.6-6.6-15.2-13.3-20.6c-0.8-0.6-0.6-1.1-0.1-1.8c0.8-1.1-0.1-1.9-0.6-2.6c-0.5-0.7-1.2-0.1-1.6,0.3
		c-1.2,0.9-1.7,0.1-2.4-0.6c-2.8-2.8-5.8-5.5-8.5-8.5c-1.4-1.6-3.6-2-5-3.4c-3.8-3.8-7.5-7.1-12.9-8.9c-5.4-1.8-10.9-3.4-16.1-5.9
		c-3.5-1.6-8-1.5-12.1-1.7c-5.9-0.2-11.8,0.2-17.7,0.1c-1.5,0-2.2,1.4-3.6,1.2c-2.8-0.4-5.6,0.5-8.2,1.2c-6.7,1.8-13.5,3.2-20.1,4.9
		c-4,1-8.5,1.2-11.2,5.2c-0.3,0.4-0.6,0.7-1.3,0.3c-2.6-1.4-4.3-0.7-4.9,2.1c-0.2,0.9-0.1,1.9-0.9,2.4c-2.8,1.7-3.8,4.9-6.4,7
		c-5.1,4.1-9.4,9.2-13.9,14.1c-4.2,4.6-6.9,10.4-11.4,14.7c-0.3,0.3-0.5,1-0.5,1.5c-0.1,2.9-2.1,5.3-2,8.3c0,3-2.2,5.4-3,8.4
		c-1.6,6.7-3.3,13.4-3.6,20.4c0,0.8-0.2,1.6-0.4,2.4c-0.5,2.1-0.3,4.2-0.2,6.2c0.6,6.4,0.3,13,1.8,18.9c0,1.1-0.4,1.9,0.2,2.5
		c2.9,2.7,2.9,6.7,4.4,10c1.6,3.4,1.8,7.5,3,11.2c1.6,5,4.8,8.8,8.3,12.5c3,3.2,7,5,10,8.3c3.9,4.4,8.4,8.2,13.5,11.4
		c4.2,2.5,9,3.9,12.8,6.9c0.1,0.1,0.1,0.1,0.2,0.1c4,0.8,7.9,2.1,11.8,3.3c7.5,2.1,15.2,1.9,22.8,2.5c5.1,0.4,10.3,0.7,15.5,0.6
		c5.6-0.1,10.9-1.2,16.1-2.4c6-1.3,12.2-2.3,18.2-4c0.7-0.2,1.5-0.6,1.7,0.5c0.2,1.2,0.8,1.1,1.7,0.7c0.9-0.3,1.9-0.3,2.1-1.6
		c0.4-2.8,2.6-3.9,5.2-2.7c1.1,0.5,2,0.5,2.9-0.4c0.8-0.9,1.2-1.7,0-2.6c-1-0.8-0.2-1.7,0.5-1.7c2.3,0.1,2.8-1.7,3.9-3.1
		c1.4-1.9,3.7-3.1,4.1-5.8c0-0.2,0.4-0.4,0.6-0.4c3.6-0.8,5.5-4.1,7.7-6.4c2.5-2.7,5.2-5.4,7.2-8.9c3.6-6.5,8.7-12.1,11.2-19.4
		c1.4-4.3,1.7-8.8,3.6-12.9c0.1-0.2,0.3-0.6,0.2-0.7c-1.9-1.8-0.2-3.6,0-5.4C367.4,174.3,367.6,173.7,367.5,173.1z M362.8,159.1
		c-1.5-0.4-3.2,1.2-3.7-0.8c-0.3-1.2,1-2.7,1.9-2.6C363,155.7,361.8,157.8,362.8,159.1z M334.4,186.1c-1.2,0-2-1-1.8-1.4
		c0.7-1,1.8-2,2.9-2.5c0.5-0.2,1.5,0.8,1.3,1.7C336.5,185.1,335.4,185.8,334.4,186.1z M335.8,194c-0.6,1-1.3,2.2-2.4,2.4
		c-0.7,0.2-1.5-1.2-1.3-1.9c0.2-1,1.2-1.9,2.2-2.1C335.1,192.3,335.5,193.2,335.8,194z M329.8,155.8c-0.8,0.8-1.3,2.3-2.8,0.7
		c-1.1-1.2-1.7-1.9-0.2-3.4c1.2-1.2,2.3-2.6,3.7-4c1,0.8,1.5,1.9,2.5,2.6c0.6,0.4-0.1,1.1-0.5,1.5
		C331.5,154.1,330.6,154.9,329.8,155.8z M329.6,168.6c-0.6,0.8-1.7,1.6-2.7,0.6c-0.9-0.9-1.5-2.1,0-3c1-0.6,1.5-1.5,2.1-2.3
		C331.4,165.4,330.8,167.1,329.6,168.6z M321.9,197.1c-0.8-0.1-1.6-0.9-1.5-1.3c0.4-1.1,0.6-2.5,2.3-2.4c1,0,2.2,0.3,2,1.2
		C324.5,195.9,322.9,196.3,321.9,197.1z M323.7,204.8c-0.1,0.9-0.8,1.7-1.6,2.2c-0.9-0.2-1.7-0.9-1.6-1.6c0.2-1,1.2-1.6,2.1-1.8
		C323.2,203.4,323.8,204.4,323.7,204.8z M295.4,219.9c0.4,0.4,0.8,0.7,0.2,1.2c-1.3,1-2.6,1.9-4.3-0.2
		C292.8,220.6,293.3,217.4,295.4,219.9z M291,211.6c0-1.3,1.4-1.8,2.4-2c0.8-0.1,1.5,0.7,2.1,1.6c-0.9,0.6-1.6,1.5-2.5,1.7
		C292.4,213.1,291,212.4,291,211.6z M290.9,175.5c0-1.1-0.1-2.1-0.1-3.2c0-9.9,0-19.8,0-29.6c0-1.9-0.5-2.5-2.4-2.4
		c-2.4,0.2-4.8,0.1-7.2,0c-1.8-0.1-2.3,0.5-2.2,2.2c0.1,5,0,10,0,14.9c-3,0-6,0.1-9.1-0.1c-2.1-0.1-2.7,0.5-2.7,2.6
		c0.1,9.7,0,19.3,0,29v0.1c0,4.3,0,8.7,0,13c-0.8-0.4-1.7-0.8-2.4,0.2c-1.4,2.2-3.3,1.9-5.3,1.2c-1.2-0.4-2.3-0.8-3.5-1.2
		c0-0.5-0.1-1.1-0.1-1.6c-0.2-3.5-0.3-6.9,0-10.4c0-0.3,0-0.6,0.1-0.9c0-0.2,0-0.3,0-0.5c-0.1-0.1-0.3-0.2-0.4-0.2
		c0-1.8,0-3.6,0-5.3c0-12.4,0-24.8,0-37.2c0-1.8-0.3-2.6-2.3-2.5c-3,0.2-6,0.2-9.1,0.2c-0.9,0.7-0.4,1.7-0.4,2.5
		c0,3.8-0.1,7.6,0,11.4v0c0,0.8,0,1.6,0,2.4c-0.2,1.1-0.9,1.4-2.4,1.4c-3,0-6-0.6-8.9,0.4c-0.1,1-0.2,1.9-0.2,2.9
		c-0.2,3.5,0.3,7-0.3,10.5c-2.8-2.5-2-6.2-2.5-9.2c-0.4-2.5-0.3-5.3-0.2-8c0.1-4.6,0.7-9.2,2.2-13.4c1.6-4.2,3.4-8.6,6.7-12
		c1.4-1.4,1.9-3.4,3.1-5c2.3-3,4.8-5.6,7.8-7.8c0.6-0.4,1.1-0.9,2.1-0.4c1.4,0.6,2.5-0.6,3.4-1.5c1.8-1.7,3.8-2.8,6.3-3.1
		c2.9-0.4,5.8-0.7,8.6-1.7c0.5-0.2,1.1-0.4,1.5-0.3c4.9,2.2,10,0.3,15.1,1.1c4.3,0.7,7.7,2.3,10.9,5.4c1.7,1.7,4.1,2.7,5.8,4.7
		c4.4,5.2,8.9,10.2,11.4,16.6c0.5,1.2,0.7,2.6,1,3.9c1.4,6.3,3.6,12.3,2.9,19c-0.4,4-2.6,7.1-3.5,10.8c-0.6-2.7-0.2-5.5-0.3-8.2
		c0-1.5-0.5-2-2-2c-2.7,0.1-5.3,0.1-8,0c-1.4,0-1.8,0.5-1.8,1.9c0.1,3,0,6,0,9.1H290.9z M270.7,215.5c1.1-0.3,1.4-1.8,2.6-1.7
		c1.6,0.2,2.4,2.2,4.2,2.1c0.1,0,0.4,0.6,0.3,0.6c-1.6,1.5-3.2,3.1-4.9,4.7c-1.1-1.4-2.7-2.2-3.8-3.5
		C268.5,217,269.8,215.7,270.7,215.5z M268.3,212c-0.5,0-1.1-0.3-1.5,0.2c-0.5,0.9-0.7,2.1-1.9,2.5c-0.1,0-0.4,0-0.5,0
		c-1.1-0.7-2.2-1.5-3.6-2.5c2.7-1.1,4.4-4.1,7.7-2.4c0.5,0.3,1.6,0.1,1.4,0.8C269.8,211.1,269.2,212,268.3,212z M277.9,208.6
		c0.6-0.7,0.8,0,1.1,0.4c0.6,0.8,1.9,0.5,2.4,1.5c0.4,0.9,1.5,0.8,2.3,1.4c-1,0.5-1.2,2.4-2.6,1.8c-1.7-0.7-2.5-2.4-3.7-3.7
		C277,209.6,277.6,208.9,277.9,208.6z M280.3,220.6c1.3-0.9,2.9-1.1,3.7,0.4c0.7,1.4-1.1,2.4-1.9,2.5c-1.7,0.3-2.2,1.5-2.7,2.9
		c-0.9-1.1-1.6-2-2.6-3.2C277.7,222.6,279,221.6,280.3,220.6z M285.9,225.3c1.1-0.8,2.4-2.2,3.6-0.1c0.4,0.6,0.5,1-0.2,1.6
		c-1.4,1.1-2.7,2.5-4.2,3.6c-1.3,0.9-1.4-1.2-2.5-1.2C284.2,228,284.7,226.3,285.9,225.3z M287.4,214.8c0.9,0.2,1.7,0.9,2.2,1.8
		c-0.5,0.7-1.1,1.4-1.9,1.4c-1.1-0.1-1.8-1.2-2.1-2.1C285.4,215.2,286.7,214.7,287.4,214.8z M289.7,206.8c-1.5,1.7-2.9,3-4.6,0.2
		c1-0.9,2.2-0.8,3.4-0.9c0.6-0.4,1.2-0.8,1.8-0.2C290.6,206.1,290.2,206.6,289.7,206.8z M252.2,206.8c2.3-0.5,3.7,1.6,5.9,1.5
		C256.4,209.7,255.5,209.5,252.2,206.8z M253,212.8c-2.9,3.3-2.9,3.3-7.3,0.3c1.2-0.9,2.3-2.7,3.5-2.3
		C250.4,211.1,251.5,212.3,253,212.8z M209.1,179.9c-0.9,1.3-2.9,1.6-3.2,3.6c-2.4-2.2-2.5-4.6-0.2-6.6c1.5-1.3,2.4,0.8,3.7,1.2
		C210.7,178.5,209.4,179.4,209.1,179.9z M209.9,191.8c-0.2,0.5-0.4,1.6-1.2,1.3c-1.1-0.3-2.5-0.9-2.8-2.1c-0.2-0.7,0.8-1.5,1.5-1.3
		C208.5,190,209.7,190.4,209.9,191.8z M197.4,176.3c1.5-1,0.8-4.2,3.8-3.8c0.7,0.1,2.1,0.7,0.9,1.7
		C200.9,175.4,200.8,179.4,197.4,176.3z M198.6,191.8c-0.3,0.9-1.1,1.6-1.7,2.4c-0.7-0.6-1.8-0.8-1.4-1.6c0.3-0.7,0.4-2,1.8-1.7
		C197.8,191.2,198.9,191,198.6,191.8z M198.1,165.6c-0.7-0.5-1.6-1.1-2.4-1.8c-0.7-0.7,0.2-1.3,0.5-1.8c0.4-0.8,1.2-1.3,1.6-2.1
		c1.3-2.8,2.9-0.6,4.4-0.4c0.1,0,0.3,0.2,0.4,0.3C202.9,160.7,199.2,165.6,198.1,165.6z M200.5,147.7c1.2,1.7-1.6,2.6-1.7,4.8
		c-1.6-2-3.4-2.7-5-3.7C197,145.9,198.9,145.4,200.5,147.7z M191,137.2c2.4-1,2.5-5.4,6.3-3.3c1.7,0.9,0.8,2.1,0.2,3.1
		C195.8,139.7,195.5,139.7,191,137.2z M195.8,155.4c0.1,0.1,0.1,0.3,0.1,0.5c-0.8,1.9-2.9,2.5-4,4.1c-0.4,0.6-1.4-0.7-2.2-1
		c-3-1.2-2.8-2.6-0.6-4.5c0.4-0.4,0.5-1.1,0.8-1.6c0.2-0.3,0.6-0.7,0.7-0.6C192.4,153.2,194.1,154.3,195.8,155.4z M190.3,169.5
		c0.7-0.7,0.4-3,3.1-1.8c2.5,1.1,2.8,1.4,0.9,3.3c-0.4,0.4-0.5,1.3-0.7,2c-0.7-0.5-1.5-0.9-2.2-1.4
		C190.7,171,189.2,170.6,190.3,169.5z M200.3,142.2c-0.6-0.4,0.1-0.9,0.3-1.3c0.7-1.1,1.4-2.3,2.1-3.6c0.8,0.5,1.4,1,2,1.4
		c0.8,0.5,2.3,1.4,1.9,1.9c-1,1.1-1,3.1-2.7,3.3C202.5,144,201.4,142.9,200.3,142.2z M254.2,109c-1-0.6-2.9-0.6-2.9-2.2
		c0-1.3,1-3,2.1-3c1.6,0,2.5,1.5,2.6,3.2C256.1,108.3,254.7,109.4,254.2,109z M254.3,113.6c-2.5,2.2-4.7,1.5-6.7-0.4
		c-0.4-0.4-1.1-0.8-0.4-1.5c0.4-0.4,0.7-1.1,1.5-0.7C250.5,111.9,252.3,112.7,254.3,113.6z M253.9,95.3c-1-0.9-2.2-1.9-3.3-2.9
		c-0.8-0.8-1.4-1.6-0.2-2.6c1.1-1,1.8-0.8,2.8,0.2C254.8,91.6,256.6,93,253.9,95.3z M250.5,99.9c0.9,0.5-0.8,1.8-1.5,2.6
		c-0.4,0.4-0.8,1.6-1.8,0.6c-0.1-0.1-0.1-0.1-0.2-0.2c-3.7-2.7-3.8-3.9-0.4-7.7C248.3,96.4,248.5,98.8,250.5,99.9z M244.6,107.9
		c-0.2,1-0.7,0.9-1.3,0.6c-1.4-0.7-2.3-1.9-3.2-3.1c-0.5-0.6-0.1-1.2,0.4-1.6c0.7-0.6,1.3-0.1,1.5,0.4
		C242.4,105.8,244.3,106.2,244.6,107.9z M240.6,122.2c-0.1,1.4-1.2,1.9-2.1,2.6c-0.1-0.2-0.3-0.3-0.2-0.3c0.5-1,0.9-2.1,2-2.5
		C240.3,121.9,240.6,122.1,240.6,122.2z M240.4,112.6c0.3,0.7-0.6,1.7-1.4,1.9c-1,0.3-3.9-2.5-3.9-3.6c0.1-1.1,1-1.3,2-1.6
		C238.4,110.1,239.8,111.1,240.4,112.6z M235.3,120.4c-1.3,1.6-2.1,1.1-3.4,0c-2.8-2.4-2.9-2.9-0.5-5.1c0.3-0.2,0.5-0.5,0.8-0.8
		c0.4,0.4,0.9,0.7,1.2,1.1c0.4,0.5,0.6,1.4,1.2,1.7C236.3,118.1,236.6,118.9,235.3,120.4z M213.9,146.3c-0.7,1-1.2,2.7-2.6,2.5
		c-1.2-0.2-3.1,0-3.4-1.9c-0.1-0.8,2.5-3.9,3.1-3.7C212.4,143.7,213.4,144.6,213.9,146.3z M211.8,125.9c-0.2-1.2,1.2-1.8,2-2.9
		c1.1,1.6,3.5,1.2,3.9,2.7c0.3,1-1.2,2.8-2.4,2.7C214,128.3,212,127.8,211.8,125.9z M209.7,158.7c0.5-1.3,1.4-3,2.8-3.2
		c1-0.2,2.2,0.9,2.8,2.1c-1,1.1-1.4,2.9-3.1,3C211.2,160.6,209.5,159.3,209.7,158.7z M214.3,140.7c-0.9-0.5-0.7-1.2-0.1-2
		c2.1-3.1,3.6-3.1,6.3,0.3c-1,1-2.5,1.3-3.5,2.4C216.1,142.5,215.1,141.2,214.3,140.7z M216.1,150.4c2.1-1.9,2.1-1.9,4.8,1.4
		c-2.1,1.9-3.6,1.9-5.2,0.1C215,151.2,215.7,150.7,216.1,150.4z M217,164.4c0.2-1.5,1-3,2.8-3.6c0.8,0.7,2.7,0.8,2.2,2
		c-0.4,1.2-0.6,3.3-2.3,3.3C218.8,166.2,216.7,166.2,217,164.4z M217.6,177.3c0.5-1.3,1.1-3.1,2.6-3.5c0.9-0.2,1.4,1.5,2.2,2.3
		c-0.9,1.3-1.6,2.6-3,2.7C218.5,178.9,217.3,178.1,217.6,177.3z M220.7,145.3c-0.3-0.7,2.7-3.8,3.7-3.8c0.9,0.4,2,1.3,1.8,2.2
		c-0.3,1.5-0.3,3.7-2.7,3.7C222.4,147.4,221.2,146.5,220.7,145.3z M225.4,169.3c0,0.7-0.4,1-1,1c-0.4,0-0.7-0.2-0.7-0.6
		c0-0.6,0.3-1,1-1C225,168.7,225.4,168.9,225.4,169.3z M223.9,155.9c0.6,0,0.9,0.4,0.8,0.8c-0.1,0.5-0.2,1.2-0.6,1.3
		c-0.6,0.2-0.9-0.4-1-0.9C223.1,156.5,223.6,156.2,223.9,155.9z M225.3,180c1-1.1,1.6-0.7,2,0.5c0.4,1,0.9,1.9,1.3,2.9
		c0.4,1-0.2,1.3-1.4,1.3c-1.1-0.7-2.1-1.9-3.4-2.8C223.1,181.6,224.7,180.7,225.3,180z M228,139.3c-0.3,0-0.7,0.1-0.7-0.5
		c0-1.2,0.8-1.9,1.6-2.5c0.3-0.2,0.6-0.3,1.6-0.6c-0.4,0.9-0.6,1.2-0.7,1.5C229.4,138,229.6,139.4,228,139.3z M231.9,108.1
		c-0.5,0.5-1.4,0.1-1.6-0.4c-0.7-1.5-3.5-2.1-1.7-4.5c0.2-0.3,0.9-0.8,1-0.7c1.4,1.1,2.2,2.7,3.8,3.5
		C232.8,106.8,232.5,107.6,231.9,108.1z M229,128.6c-4.2-3-4.2-3-2.3-6.3C230.7,124.9,230.7,124.9,229,128.6z M226.3,133
		c-1.1,0.9-1.9,1.6-2.7,2.3c-0.9-0.7-1.5-1.5-2.5-2.1c-0.7-0.3-2-0.4-1.7-1.5c0.2-1,1-1.9,1.9-2.5c1-0.6,1.5,0.6,2.2,1.1
		C224.5,131.1,224.7,132.5,226.3,133z M222.9,119.2c-0.5,1.1-1.2,2.8-3.1,2c-1.1-0.4-2.1-0.9-3.3-1.4c1.3-1.8,2.4-3.6,4.7-2
		C221.8,118.3,223.5,118,222.9,119.2z M220.8,105.8c-0.7,0.4-0.8,1.7-1.3,2.5c-0.3,0.5-0.8,1-1.6,1c-0.5-0.4-1.2-0.7-1.7-1.3
		c-0.6-0.7,0.2-1.1,0.5-1.5c0.6-0.9,1.3-1.7,2-2.5c0.5-0.5,0.9-1.9,2-0.8C221.1,103.9,222.6,104.6,220.8,105.8z M216.1,113.8
		c0.2,0.5-2.8,2.9-3.7,2.9c-1-0.6-2.8-1.1-2.6-2.4c0.2-1,1.1-2.8,2.8-2.6C214,111.9,215.4,112.4,216.1,113.8z M212.3,133.1
		c-1.6,0.6-1,2.9-2.8,3.3c-1.3,0.2-4.8-2.4-4.3-2.9c1.2-1.2,2-3.2,3.8-3.3C210.5,130.1,211.4,131.6,212.3,133.1z M208.2,123.5
		c-1.4-0.6-2-2.3-3.9-2.3c1.6-0.6,0.6-3.7,2.9-2.9C210.2,119.4,208.5,121.6,208.2,123.5z M202.9,154.3c0.4-1.3,0.8-3.4,2.6-3.6
		c1-0.1,2.2,1.1,2.4,2.7c-1.1,0.6-0.4,2.9-2.5,2.7C204.1,156.1,202.5,155.5,202.9,154.3z M203.4,167c0.9-1,1.6-2.1,2.5-3.1
		c0.4-0.4,0.6-1.6,1.6-0.7c0.7,0.6,1.5,1.2,1.5,2.4c-1,1.3-1.9,2.8-3,4c-0.7,0.7-1.5,0-2.1-0.6C203.3,168.3,202.6,167.9,203.4,167z
		 M211,170.9c0.6-0.8,1.3-1.4,1.9-2.2c0.4-0.6,0.5-1.5,1.5-1c1,0.5,1.7,1.2,2.2,2.2c0,0.6-3.4,4.2-4.1,4.2c-1.1,0-1.9-0.7-2.5-1.4
		C209.3,171.8,210.6,171.5,211,170.9z M210.8,185.1c0.8-0.9,1.6-1.9,2.3-2.9c0.4-0.5,0.5-1,1.5-0.7c1.1,0.4,1.3,1.3,2,2
		c-1.5,1.3-1.8,3.6-3.8,4.4c-1.1,0.5-1.3-0.5-1.8-1C210.6,186.4,210,185.9,210.8,185.1z M214.2,194.6c1.4,0.3,2.9,0.9,2.9,2.8
		c0,0.6-0.4,1.6-1.6,1.5c-1.1-0.7-2.4-1.4-2.9-2.7C212.6,195.8,213.2,194.3,214.2,194.6z M219.3,207.9c-1.7-0.1-2.7-1.3-3.8-2.8
		C218.1,204.9,218.3,206.9,219.3,207.9z M217.1,191c-0.6-0.8,0.5-1.3,0.9-2c0.3-0.5,0.8-1,1.2-1.4c1.3-1.6,3.8-1.4,4.8,0.5
		c0.1,0.1,0.1,0.3,0.1,0.4c0,0.6-3.6,4.4-4.5,4.4C218.8,192.3,217.7,191.8,217.1,191z M221.4,199.5c1.4,0.6,3,1.4,3.4,3
		c0.2,0.8-1.6,2.2-1.9,2c-1.2-1-2.8-1.9-3.1-3.7C219.6,199.8,220.6,199.7,221.4,199.5z M226.5,214.3c-2.4,0-2.7-1.8-4-3.4
		C224.8,211.4,225.5,212.8,226.5,214.3z M224.4,196c0.1-1.6,1.6-4.3,3.3-4.3c1.6,0,3.1,2.1,4.7,3.3c-1.2,1.3-2.4,2.6-3.7,3.9
		C227.3,197.5,224.3,198,224.4,196z M229.1,204.5c0.7,1.6,3.9,1.6,2.9,3.8c-1.3,2.7-3.2,0.9-4.7-0.2
		C226.3,207.4,226.3,207.3,229.1,204.5z M229.5,216.9c1.2,1,2.7,1.7,3.3,3.2c0.2,0.4-0.6,1-1.1,1.2c-0.5-0.1-3.2-3.2-3-3.5
		C229,217.4,229.5,216.9,229.5,216.9z M232.2,200.9c-0.1-1,1.5-2.8,2.7-2.7c1.1,0.1,2.2,1.6,3.3,2.5c-1,1.2-1.4,3.4-2.7,3.2
		C234.1,203.7,232.3,202.3,232.2,200.9z M237.3,211.4c1,0.8,2.2,1.9,1.2,3.1c-2.4,2.8-3.6-0.7-5.6-1.1
		C234.4,212.5,234.7,209.2,237.3,211.4z M236.5,222.6c1.3,0.3,2.6,0.7,2.8,1.7c0.2,1.1-1.3,1.8-2.2,1.9c-1.1,0.1-2-1.1-2.3-2
		C234.7,223.6,235.6,222.7,236.5,222.6z M242.3,205.1c1.6,0.3,2.4,1.2,2.4,2.5c0.1,1.3-0.9,2.1-2,1.9c-1.3-0.2-3.1-0.9-3.3-2.1
		C239.3,205.8,241.7,206.2,242.3,205.1z M243,216.3c0.9-0.2,2,1.2,2.3,2.7c-0.7,0.6-0.3,2.2-2.1,2.1c-1.6,0-2.2-1.1-3.1-2
		C241.1,218.2,241.9,216.6,243,216.3z M287.4,93.1c-1.6-0.5-2.9-1.9-3.5-3.7c-0.2-0.5,0-0.8,0.4-1.1c0.5-0.3,0.7-0.1,1.1,0.1
		c1.3,0.8,2.7,1.6,4.2,2.4C288.9,91.7,288.4,93.4,287.4,93.1z M287.9,104.3c-0.5-0.8-2.8-1-1.1-2.6c0.6-0.6,1.1-2.2,2.1-1.3
		C290.4,101.8,288.3,102.9,287.9,104.3z M284.6,96.8c-0.1,1.2-0.5,2.2-1.3,2.7c-0.9,0.6-1.9-0.4-2.2-0.9c-0.6-1.2-2.6-1.8-2-3.5
		c0.2-0.5,0.6-1.7,1.7-1.2C282.4,94.6,284,95.1,284.6,96.8z M284.4,107.5c-0.6,1.2-0.5,3-2.4,3.2c-0.3,0-0.9-0.1-0.8-0.5
		c0.3-1.6,2-2,2.8-3.6C284.3,107.3,284.4,107.5,284.4,107.5z M279.7,103.8c-0.4,0.9-1.3,1.8-2.2,2.2c-1,0.4-1.4-0.8-2-1.4
		c-1.7-1.7-1.8-3.2,0.4-4.6c0.7,0.7,1.5,1.4,2.2,2.1C278.7,102.7,280.1,102.7,279.7,103.8z M274.9,92.3c-0.9,0.2-1.3-0.1-1.3-1.1
		c0.1-1.3,0.6-2.6,1.7-3c0.7-0.2,1.5,1,2,1.9C276.9,91.2,276.2,92,274.9,92.3z M273.8,109.1c-1.7,0.1-3.2,0.1-4.7,0.2
		c1.1-0.6,0.7-2.8,2.3-2.7C272.8,106.7,273.2,108,273.8,109.1z M269.3,99.8c0-2.3,0.9-3.7,2-4.9c0.1-0.1,0.8,0.3,0.8,0.4
		C271.7,96.8,271.1,98.4,269.3,99.8z M270.2,87.1c-1.3,1.5-2.4-0.3-3.2-0.9c-2.2-1.7,1.2-2.1,1.1-3.5
		C268.4,84.4,272.5,84.4,270.2,87.1z M266.8,104.2c-0.9,0.6-1.7,1.2-2.8,2c0.1-1.6,1.7-1.8,1.8-3.1c0.1-0.6,0.9-0.5,1.3-0.1
		C267.6,103.4,267.2,103.8,266.8,104.2z M265,95.8c-0.1-2.3-4.8-1.6-2.5-5c0.7-1,1.4-2.3,3-1C267.7,91.5,267.7,92,265,95.8z
		 M262.3,110.1c0.1,0.1,0.2,0.6,0.1,0.7c-0.8,0.7-1.7,0.4-2.8,0.1C260.5,110.1,261.3,109.7,262.3,110.1z M260,102.3
		c-1.7-0.5-2.4-1.9-2.6-3.2c-0.2-1.1,1.5-2.5,1.9-2.4c1.2,0.3,2.2,1.4,2.3,2.9C261.6,100.8,260.8,101.6,260,102.3z M297.8,92.1
		c-0.8,0-2.3-0.6-2.1-1.5c0.2-1.1,1.1-2.4,2.3-2.6c0.9-0.1,1.5,1,2,2.1C299.2,90.7,298.9,92.1,297.8,92.1z M299.1,103
		c-3.4-1.8-3.4-2-0.2-4.6C300.4,99.8,300.5,101.4,299.1,103z M295.8,106.3c-1.4-0.6-1.5,3.1-3.2,0.9c-0.9-1.1,0.3-1.9,0.8-2.3
		C294.5,104.2,295,105.6,295.8,106.3z M293.2,98.7c-0.8-1.4-2.6-1.8-1.2-3.3c0.4-0.5,0.8-1.8,1.8-0.8C295.3,96,293.4,97,293.2,98.7z
		 M308.7,108c1,0.3,1.6,1.3,1.6,1.9c0,1-1.1,1.6-2.1,1.6c-0.9-0.1-2.2-0.8-2.2-1.6C306.2,108.7,307.8,108.7,308.7,108z M307.8,100.5
		c-0.1-1.3,1.1-1.8,1.7-2.6c0.9,0,1,0.5,1.1,1c0.3,1.6-2,1.2-2,2.5C307.9,101.4,307.8,100.8,307.8,100.5z M308.9,118.1
		c1.3,0.1,1.6,2.2,3.2,2.6c-3.1,1.9-3.7,1.8-6.9-1.7C306.7,119.1,307.9,118,308.9,118.1z M304.6,97.1c-1.9,0.9-2.3-1.5-4.1-2.4
		c1.9-0.6,3.1-3.3,4.8-0.6C306.2,95.3,305.4,96.7,304.6,97.1z M303.2,105.6C303.2,105.6,303.2,105.6,303.2,105.6
		C303.2,105.6,303.1,105.6,303.2,105.6c-0.3,0.7,0.2,1.7-1,1.9c-0.1,0-0.5-0.3-0.5-0.6C301.6,105.8,302.2,105.5,303.2,105.6
		C303.1,105.6,303.1,105.6,303.2,105.6L303.2,105.6C303.2,105.6,303.1,105.6,303.2,105.6C303.1,105.6,303.2,105.6,303.2,105.6
		c-0.1-1.1,0.5-1.6,1.8-1.9C304.8,105,304.3,105.6,303.2,105.6z M304.6,115.4c-0.7,0.4-0.7,1.9-1.6,1.7c-1-0.3-2.3-1.1-2.4-2.2
		c-0.1-1,1.3-0.9,2.1-1C303.9,113.8,304.3,114.5,304.6,115.4z M313.5,125.1c0.8-0.7,2.1-1.9,3.5-0.6c0.6,0.5,1.2,1,2.1,1.7
		c-0.6,0.5-1.4,0.8-1.4,1.2c-0.6,4.7-1.9,0.7-2.9,0.2c-0.2-0.1-0.3-0.4-0.4-0.6C314.1,126.4,312.5,125.9,313.5,125.1z M308.8,198.7
		c-0.5,2-2,3.4-3.8,4.2c-1.5,0.7-1.8-1-2.6-1.7c-0.9-0.9,0.3-1.2,0.7-1.5c1.5-1.1,3.1-2.1,4.6-3.2
		C308.8,196.9,309,197.8,308.8,198.7z M299.9,207.4c-0.4,0.5-0.8,1.3-1.8,0.2c-1.6-1.6-0.7-2.5,0.6-3.5
		C299.5,205.1,301.4,205.6,299.9,207.4z M297.1,216.3c0.2-1.1,0.9-2,2-2.1c0.6-0.1,1.4,0.4,1.4,1.5c-0.7,0.5-1,1.7-2.2,1.7
		C297.9,217.3,297,217.1,297.1,216.3z M299.8,223.5c0.9,0.3,2,0.7,2.4,2c-0.6,0.8-1.4,2.2-2.1,1.9c-0.9-0.3-2.3-1.2-2.3-2.4
		C297.7,224.4,298.8,223.3,299.8,223.5z M301.8,210.7c1.8-0.5,2.8-2,4.2-0.4c0.7,0.8,0.4,1.3-0.2,1.7
		C304,213.3,303.5,211.1,301.8,210.7z M305,218.4c1.1,0.7,2.2,1.5,2.5,2.8c0.2,0.8-1.3,2-1.4,1.9c-0.8-1.3-2.9-1.3-3.1-3
		C303,219.1,304.2,218.9,305,218.4z M306.8,228.7c1.2-0.3,1.9,1,2.6,1.9c-0.4,1-0.9,2.2-2,2.3c-1.2,0.1-2.5-0.9-2.7-2
		C304.6,230.3,305.9,229,306.8,228.7z M308.1,215.5c1.5-2.3,2.6-0.3,3.7,0.2c0.8,0.4,0.3,1.3-0.1,1.9c-0.5,0.9-1,0.3-1.5-0.1
		C309.6,216.9,308.9,216.2,308.1,215.5z M310.4,208.3c-1.2-0.3-1.6-1.1-2-1.9c-0.6-1.1,0.5-1.1,1-1.4c0.8-0.6,1.6-1.1,2.3-1.9
		c0.8-0.9,1.5-0.8,2.2,0c0.7,0.8,0.8,1.6-0.1,2.2C312.4,206.2,311.2,207.1,310.4,208.3z M315,209.6c0.8-0.4,1.4-1.9,2.6-0.6
		c0.6,0.6,0.9,1.4,0.2,2.1c-0.8,0.9-1.6,2-3.1,1.3c-0.7-0.3-1.3-0.8-2-1.3C313.6,210.5,314.2,209.9,315,209.6z M318.7,200.4
		c-0.1,0.4-0.1,1.1-0.7,0.8c-0.7-0.3-1.6-0.7-1.7-1.5c-0.1-0.7,0.6-0.7,1.2-0.6C318.1,199.3,318.9,199.4,318.7,200.4z M319.6,230.2
		c0,1-1.2,1.2-1.9,1.6c-0.8,0.5-1.1-0.5-1.2-0.9c-0.5-1.5,1.6-0.9,1.5-2.1C319,229,319.7,229.6,319.6,230.2z M316.8,192.3
		c-0.7,0.2-2.2-0.9-2-2c0.2-1.3,1.6-2.4,2.8-2.4c0.8,0,1.9,1.3,2.3,2.5C319.1,191.5,317.9,192.1,316.8,192.3z M318,136.8
		c1.8,1.5,3.5,2.5,1.9,4.8C318.7,140.4,318.3,138.9,318,136.8z M341.5,138.8c1-1.4,1.5-3.2,3.5-0.8c0.5,0.6,2.5,1,2.3,1.9
		c-0.3,1.3-1.7,2.3-2.9,2.9c-1.2,0.7-1.9-0.5-2.6-1.3c-0.6-0.6-1.3-1.1-1.9-1.6C340.4,139.7,341.1,139.3,341.5,138.8z M342.4,125.1
		c0.8,0.5,0.8,1.7,1.7,2.2c1.1,0.6,1.4,1.3,0.4,2.5c-1.1,1.3-1.8,0.9-2.7-0.1C340.1,127.7,338.6,127.7,342.4,125.1z M351.2,143.2
		c0.6,0.1,2.3,1.9,2.3,2.7c-1.2,0.8-2.1,2.4-3.8,2.6c-1.4,0.2-1.9-1.3-2.6-2.2C346.9,146.1,350.8,143.2,351.2,143.2z M349.1,131.4
		c1.1-0.9,1.4,0.3,1.6,0.9c0.4,1.4,1.4,1.9,2.7,2.1c-1.6,1.8-5.2,1.4-5.8-0.6C347.1,132.7,348.2,132.1,349.1,131.4z M338.6,179.1
		c1.2-1,2.4-2,3.5-3.1c0.6-0.7,1-0.3,1.5,0c0.7,0.5,0.6,0.9,0.2,1.5c-0.3,0.3-0.5,0.7-0.7,1.1C341.4,181.6,341.4,181.6,338.6,179.1z
		 M341.6,189.1c-0.7,0.6-1.2,1.8-2.6,1c-0.4-0.3-0.9-0.4-1.6-0.7c0.8-0.6,1.2-0.9,1.8-1.3c0.7-0.5,1.4-1.1,2.4-0.3
		C342.2,188.3,342,188.8,341.6,189.1z M338.2,166c2.4,0,2.2-4.7,5.2-2.2c0.4,0.3,2.5,1.5,1.1,3C341.8,169.6,341.7,169.6,338.2,166z
		 M335.3,162.6c-1.6,1.1-2.3-0.5-3.3-1.2c-1.3-0.9-0.5-1.5,0.1-2.1c1.6-1.4,3.2-2.8,4.8-4.1c1,0.6,1.2,1.4,1.7,2.2
		c0.6,1,0.4,1.9-0.3,2.6C337.3,161,336.4,161.9,335.3,162.6z M342.5,156.1c-0.8,0.3-2.1-1.3-2.5-2.6c-0.1-0.4,3.3-4.2,3.6-4
		c1.6,0.6,2.1,2.3,2.9,3.7C345.2,154.1,344,155.6,342.5,156.1z M340.4,146.8c-0.7,1.4-2.4,2-3.7,3.2c-0.6-1.5-2.8-1.6-2.8-3.2
		c0-1.6,1.5-2.7,2.9-3.6C337.3,142.8,340.7,146.1,340.4,146.8z M337.7,135.5c-0.7,0.3-1.4,1.2-2.3,0c-0.6-0.8-1.4-1.3-2.5-1.9
		c0.9-0.7,1.5-1.3,2.2-1.8c0.4-0.3,0.2-1.6,1.4-0.7c1.1,0.8,2.8,1.1,3.2,2.6C340,134.7,338.6,135.1,337.7,135.5z M333.5,139.8
		c-1,0.9-2,1.9-3,2.8c-0.9-1.1-3.6-0.6-3.3-2.4c0.2-1.2,2.1-2.2,3.2-3.1C331.4,138,332.5,138.9,333.5,139.8z M331.4,121.5
		c3.1-4.5,5.2-1,7.3,1C336.5,125,337.7,126.1,331.4,121.5z M332.5,127.6c-0.1,1.3-1.3,1.8-2.2,2.5c-0.4,0.3-4-3-3.9-3.6
		c0.2-1.3,1.6-1.5,2.3-2.1C329.7,124.4,332.6,126.8,332.5,127.6z M329.9,116.6c-0.6,1.1-2.1,1.8-3.8,0.4c-2.4-2.1,0.5-2.7,1-4
		C327.4,114.8,331.4,113.8,329.9,116.6z M326.6,133.2c-1.1,1.1-1.3,2.8-2.7,3.3c-0.6,0.2-3.4-2.7-3.2-3.4c0.4-1.4,1.8-2.7,2.7-2.7
		C324.7,130.5,325.6,132.1,326.6,133.2z M322.5,123.5c-1.5-0.1-2.9-1.1-3.1-2.4c-0.1-0.8,1.2-2.1,2.3-2.1c1.2,0,2.2,1,2.3,2.5
		C323.5,122.1,323.8,123.6,322.5,123.5z M323.5,174.4c-0.3,0.5-0.5,1.5-1.5,0.9c-1.9-1.3-2.5-2.8-0.8-4.9
		C321.8,171.8,325.1,171.6,323.5,174.4z M323.3,160.2c0.2-0.1,1,0.2,1.1,0.5c0.1,1-0.6,1.4-1.4,2C323,161.7,322.4,160.8,323.3,160.2
		z M323.9,186.4c-1.1-0.6-2.6-1-2.9-2.4c-0.2-0.7,1-1.7,1.8-1.5c1.3,0.3,1.4,2.1,2.8,2.4C324.9,185.7,324.4,186.7,323.9,186.4z
		 M325.1,147.7c-1.1,1-2.2,2.2-3.5,3.5c-1.4-1.7-1-3.6-1.2-5.3c-0.2-1.9,2.2-1.5,3.4-2.2c0.6-0.4,1.3-0.3,2,0.8
		C327,146.2,326.3,146.6,325.1,147.7z M333.9,170.5c1.8-1.2,4-0.5,4.5,1.6c0.5,2-1.7,2.4-2.7,3.6c-0.6,0.7-1.5-0.3-1.7-0.9
		c-0.5-1.2-1.5-1.6-3-2.3C332.3,171.7,333.1,171.1,333.9,170.5z M342.9,198.7c0.4,0.2,1,0.4,0.7,1.1c-0.9,2-4.2,2.7-5.7,1.1
		c-0.5-0.6-1-1.2-1.6-1.7C338.4,196.3,340.7,197.6,342.9,198.7z M343.4,192.9c0.4-0.9,1.2-1.8,2.2-1.7c1.5,0.2,2.5,1.5,2.8,2.8
		c0.2,0.8-0.7,1.9-1.7,2.5C346.3,196.6,343.3,193.3,343.4,192.9z M346.6,184.5c-0.1,0.4-0.2,1-0.7,0.9c-0.6,0-0.7-0.7-0.8-1.2
		c-0.2-0.9,2.6-4,3.6-3.9c0.2,0.2,0.4,0.4,0.6,0.7c0.3,0.5,0,0.8-0.5,0.9C347.5,182.4,346.9,183.3,346.6,184.5z M348,173.7
		c-1,0.2-1.8-1-1.8-1.5c0.2-1.4,1.4-2.2,2.5-3c1.1,0.2,2,1,1.9,1.7C350.4,172.2,349.4,173.3,348,173.7z M349.5,161.7
		c-1.6,0.4-2.3-1.1-3.5-1.6c-0.4-0.2-0.3-0.7,0-0.9c1.2-1.2,2.5-2.5,3.8-3.6c0.6-0.5,3.1,1.7,3.1,2.8
		C351.7,159.2,351.3,161.2,349.5,161.7z M352.2,175.7c1.4-1.8,2.6-1.8,3.8,0.5c-1.5,0.1-1.5,3.3-3.9,1.8
		C351,177.3,351.5,176.6,352.2,175.7z M354,167.1c-0.7-0.2-1.2-0.7-1.1-1.5c0.3-1.6,1.4-2.9,2.8-3.6c0.7-0.3,1.2,0.8,1.5,1.5
		C357.5,164,354.6,167.1,354,167.1z M356.5,153.8c-1,0.8-1.8,0.2-2.6-0.5c-1-0.8-0.2-1.3,0.4-1.9c0.8-0.8,1.5-1.6,2.2-2.4
		c1.4,0.2,1.7,1.5,2.6,2.2c0.8,0.7-0.7,0.7-1.1,1.2C357.5,152.8,357,153.4,356.5,153.8z M360.3,135.5c0.1,1.1,0.6,2.3,0.2,2.9
		c-0.9,1.2-1.9,2.3-2.8,3.6c-0.4,0.6-1.8,0-2.5-0.8c-0.7-0.9-1.1-1.7-0.1-2.8C356.6,137,358.4,136.4,360.3,135.5z M356.1,126.5
		c1.1,0.2,0.9,1.9,1.6,2.8c0.2,0.3-0.4,1.5-0.8,0.9c-1-1.3-2.9-0.7-3.9-2.2C353.8,127.1,355,126.3,356.1,126.5z M353.9,117.9
		c0.1,0.3,0.2,0.8-0.2,0.8c-0.6-0.1-1-0.5-1.2-1.2C353.1,117.2,353.6,117.1,353.9,117.9z M346.3,122.1c1.1-1.2,1.1-1.2,5.9,1.4
		C349.9,124.8,349.9,124.8,346.3,122.1z M349,109.4c1.1,0.5,2.2,0.9,1.5,2.1c-0.6,1.1-0.9,3.3-3.1,2.4c-1.4-0.6-2.7-1.7-4.2-2.6
		C345,109.4,346.5,108.2,349,109.4z M343.9,117.6c-0.4,0.5-1,1.6-1.4,1.2c-1.3-1.1-2.9-1.3-4.3-2c-0.4-0.2-0.2-0.6,0-0.8
		c0.5-0.7,1.2-1.3,1.6-1.4C342.5,114.5,342.5,116.8,343.9,117.6z M336.2,103.3c0.9-0.4,1.7-1.5,2.8-0.6c1.1,0.9,2.1,1.9,3.5,3.1
		c-0.7,0.7-1.3,1.2-1.9,1.8c-0.5,0.5-1.1,0.8-1.5,0.1c-0.7-1.3-1.8-2.2-2.8-3.1C335.8,104.2,335.5,103.7,336.2,103.3z M336.2,110.1
		c0.8,0.9-0.9,1.2-1.1,1.9c-0.5,1.5-1.2,0.8-1.9,0.3c-0.4-0.3-0.8-0.7-1.2-1c-0.6-0.5-2.1-0.3-1.6-1.4c0.4-0.8,1.6-1.2,2.7-1.9
		C334,109,335.4,109.2,336.2,110.1z M333.8,92.1c0.6-0.2,1,0.2,1.2,1c0,0.3-0.2,0.7-0.7,0.7c-0.6,0.1-1.1-0.1-1.2-0.7
		C333,92.6,333.3,92.2,333.8,92.1z M329.3,88.2c0-0.1,0.6-0.3,0.6-0.2c0.6,0.6,1.1,1.3,0.8,2.6C329.9,89.8,329.2,89.2,329.3,88.2z
		 M329.9,96.5c1.6,0.2,3,0.9,4.2,2c0.2,0.2,0.4,0.5,0.7,0.8c-0.6,0.7-1.1,1.5-1.8,2c-0.5,0.4-0.9-0.3-1.2-0.6
		c-1.1-0.8-2.7-1.3-2.7-3C329,97.3,329.7,96.5,329.9,96.5z M324.6,90.6c1.7,0.6,2.1,2,2.5,3.3c0.1,0.5-0.5,1.1-0.7,0.9
		c-1-1-3-0.6-3.3-2.3C322.9,91.7,323.9,91.1,324.6,90.6z M324.5,101.7c2.1-1.3,2.8,0.9,3.9,1.9c1.1,1,1.1,1.9-0.1,2.8
		c-0.3,0.2-0.5,0.4-0.8,0.6c-1.7-1-3.5-1.7-4.5-3.3C322.3,102.7,323.8,102.1,324.5,101.7z M318.1,87.8c0.3-1.1,1.2-2.3,2.4-2.5
		c0.7-0.1,1.2,1,1.1,1.9c-0.1,1.3-1.2,1.6-1.9,2.4C318.9,89,317.9,88.5,318.1,87.8z M317.6,98.6c0.2-1.1,1-2.6,2.3-2.5
		c1,0.1,1.9,1.2,2.8,1.8c-0.9,1.4-1.5,2.9-2.9,2.8C318.9,100.7,317.3,100,317.6,98.6z M319,107.2c0.6-0.5,0.9-0.3,1.3,0.1
		c1.2,0.9,2.4,1.7,3.8,2.8c-1.3,1-2.7,1.6-3.4,3c-0.6-0.5-1.1-1-1.7-1.4C316.9,110.1,316.9,108.8,319,107.2z M316.9,114.3
		c0.4,0.4,1.8,0.7,0.7,1.7c-0.7,0.7-1.2,2.3-2.7,1.2c-1.2-0.8-2.4-1.7-3.6-2.6C313.2,112.2,315.1,112.3,316.9,114.3z M313.7,95.5
		c-0.6-0.1-0.9-0.4-1-1.2c0.6-1.1,0.9-2.7,2.5-3.2c0.8-0.3,1,0.5,1.2,1C316.7,92.6,314.2,95.5,313.7,95.5z M313.3,81
		c1.2-1.1,2-0.1,2.4,0.4c1.3,1.9-1,2.3-1.5,3.8C313.1,83.7,311.5,82.7,313.3,81z M311.6,104.4c0.1-0.6,2.1-2.3,3-2.3
		c0.5,0.6,1.6,1.8,1.5,2c-0.7,0.9-1.7,1.9-2.7,2.2C312.8,106.5,311.5,105.7,311.6,104.4z M309.5,92c-1.3-1.6-3.8-2.1-1.9-4.4
		c0.4-0.5,0.6-1.9,2.1-1.1C313.6,88.6,309.4,89.8,309.5,92z M310.4,74.8c0.8,2.2-0.1,3.8-1.7,4.3c-1.3,0.5-2.2-0.9-3-2.4
		C307.7,76.9,309.2,76.4,310.4,74.8z M305.7,82.9c-0.8,1.5-1.2,3.1-2.7,3.3c-0.4,0-2.7-0.7-2.3-1.8c0.5-1.2,1.1-3.1,2.7-3.3
		C304.1,81,304.9,82.3,305.7,82.9z M299.9,71.9c1.2-0.8,2.9-0.1,5,0.8c-1.5,0.5-1.6,2.7-3.3,1.1C300.8,73.2,299.2,72.4,299.9,71.9z
		 M295.7,74.5c0.8,0.1,4,3.4,3.6,3.9c-0.8,1.3-1.7,3.4-3.2,2.9c-1.3-0.4-2.3-2.4-3.2-3.8C292.7,77.1,295.2,74.5,295.7,74.5z
		 M294.3,85c-0.4,1.5-1.3,2.5-2.7,2.8c-0.3,0.1-3.5-3.5-3.4-3.8c0.6-0.9,1.2-1.9,2.3-2.1C291.3,81.8,294.3,84.6,294.3,85z
		 M288.6,70.8c0.2,0.1,0.4,0.2,0.4,0.2c-0.3,1.2,1.6,2.2,0.8,3c-1.3,1.1-1.5-2.2-3.3-0.9C287.2,71.8,287.8,71.1,288.6,70.8z
		 M286,79.1c0.4,1.1-0.4,1.8-1.4,1.8c-1.2,0-1.8-1.1-2.8-1.6c0.6-1,1.3-2,2-3.2C285,77,285.6,78,286,79.1z M282.7,67.4
		c0.7-0.1,1.3,0,1.3,0.7c0,0.7-0.6,1-1.3,1c-0.6,0-1.4-0.3-1.4-0.8C281.2,67.3,282.2,67.6,282.7,67.4z M279.9,87.4
		c-0.1-1.7-3.6-1.4-1.8-3.9c0.3-0.4,0.2-2,1.5-1C281.4,83.8,282.4,85.2,279.9,87.4z M275.2,72.6c0.5-0.6,1.1-0.9,1.8-0.6
		c1,0.5,2,1,3.3,1.6c-1.6,1.7-3,2.9-4.6,0.5C275.4,73.7,274.6,73.3,275.2,72.6z M273.1,77.1c0.8,0.6,3.3,1.8,1.7,3.5
		c-2.3,2.4-3-1.6-4.9-1.6C271.1,78.5,271.4,75.8,273.1,77.1z M264,72.9c0.1-1.3,1.3-2.3,2.6-3.2c0.7,1.4,2.7,1.8,2.4,3.6
		c-0.2,1-1,2.4-2.2,2.1C265.5,75.1,263.8,74.4,264,72.9z M259,78.2c0.8-0.5,1.1-2.4,2.7-1.1c1.1,0.9,2.1,1.9,3.3,3
		c-2.1,1.8-4.5,1.6-6.2,0.1C257.7,79.2,258.4,78.5,259,78.2z M259.7,86.7c0.2,1-0.3,2-1.2,2.5c-1.1,0.6-1.1-0.7-1.6-1.2
		c-0.8-0.8-1.4-1.8-2.1-2.7c-0.4-0.5-0.5-0.9,0-1.3c0.4-0.3,0.8-0.7,1.3-1.1C257.2,84.4,259.3,84.8,259.7,86.7z M255.6,70.6
		c0.5,0.3,0.4,0.9,0.3,1.4c1.1,1.8,0.2,3.1-1,4.5c-2.3-2-2.3-2,0-5.1C254.9,70.8,255,70.3,255.6,70.6z M249.3,78.3
		c1.5,0,2.1,1,2.6,2.1c-0.5,1-0.9,2.1-1.9,1.7c-1.3-0.4-2.7-1.4-3-2.7C246.8,78.5,248.3,78.2,249.3,78.3z M244.4,72.9
		c0.6,2.4,0.7,3.7-2.1,3.3C243,75,243.6,74.2,244.4,72.9z M243.8,83.7c1.5,0.3,3.1,0.8,3.4,2.6c-0.1,1.4-0.9,2.1-2.1,2
		c-1.8-0.1-2.8-1.6-3.3-3C241.6,84.4,242.9,83.5,243.8,83.7z M241.4,93.3c-0.8,0.6-0.2,2.2-1.5,2.1c-1.5-0.1-2.4-1.3-3.4-2.4
		c-0.6-0.6-0.1-0.9,0.3-1.3c0.8-0.7,1.6-1.4,2.4-2.1c0.2,0.8,1,1.6,1.9,2.2C241.7,92.3,242.3,92.6,241.4,93.3z M237.9,79.2
		c0.8-0.8,1.5-0.4,2.1,0.1c0.7,0.7-0.2,1-0.5,1.4c-1.4,2.1-1.5,2.1-3.8,1C236.3,80.8,237,80,237.9,79.2z M237.2,99.8
		c-0.7,0.7-0.3,2.5-1.4,2.2c-1.6-0.4-3.3-1.5-3.8-3.3c-0.2-0.9,0.5-2,1.7-2C235.7,96.7,236.2,98.5,237.2,99.8z M231.5,77.1
		c0.4-1.4,1.8-0.9,2.8-1.3c-0.3,1.2-0.6,2.4-2,2.5C231.7,78.3,231.4,77.4,231.5,77.1z M231.5,86.7c0.4-0.4-0.2-2,1.2-1.7
		c1,0.3,2.1,1.3,2.1,2.5c-0.1,0.9-1.1,1.9-2,1.8C231.9,89.2,230.9,88.3,231.5,86.7z M230.2,93.6c-0.5,0.7-0.5,2.1-1.7,2.3
		c-1.1,0.2-1.9-0.4-2-1.6c-0.1-1.4,1.1-2.1,2-2.5C229.4,91.4,229.7,92.7,230.2,93.6z M225.8,82.6c0.2-0.8,0.5-1.5,1.5-1.7
		c0.6,0.6,1.7,1,1.4,2c-0.2,0.7-0.7,1.9-1.7,1.7C226.2,84.5,225.4,83.7,225.8,82.6z M226,109.5c0.5,1,2.4,2,1.8,2.8
		c-0.8,1.1-1.3,2.6-2.5,3.6c-1.2-1.3-3.1-2.4-3.2-3.6c-0.1-1.1,1.7-2.5,2.8-3.5C225.4,108.3,225.8,109,226,109.5z M223.5,98.2
		c1-0.2,0.8,0.9,1.3,1.3c0.2,0.7-0.3,0.8-0.7,0.9c-0.7,0.1-1.1-0.5-1.3-1.1C222.8,98.8,223.1,98.3,223.5,98.2z M224.4,88.5
		c1.4,0.9,0,1.7-0.4,2.4c-0.7,1.2-1.2,0.1-1.5-0.3c-0.9-1.1-1.4-2.6-2.6-3.7C221.6,86.6,223,87.6,224.4,88.5z M220,94.6
		c0.3,0.2-0.1,0.8-0.4,1.1c-0.3,0.4-0.6,0.1-0.9-0.1c-1-0.8-2-1.7-3.3-2.8C217.8,91.9,218.7,93.8,220,94.6z M209.5,100
		c0.9-1.3,2.5-1.8,3.5-3.2c0.5-0.8,1.4,0.4,1.8,0.9c0.6,0.6,2.1,1.1,1.5,2.1c-1.2,1.7-3.3,2.9-3.8,5.1c0,0.1-0.5,0.1-0.8,0.2
		c-1-0.9-2.2-1.7-3-2.8C208.2,101.5,209,100.6,209.5,100z M205.9,105.7c0.4,1.6,2.9,1.6,2.6,2.6c-0.4,1.4-1.8,2.6-3.1,3.4
		c-0.3,0.2-2.6-1.6-2.6-2.4C202.8,107.7,204.7,107,205.9,105.7z M204.4,126.3c-0.1,1.5-0.9,2.9-1.9,4c-0.9,1-1.7,0.4-2.6-0.1
		c-0.6-0.3-1.1-0.5-1.7-0.8c0.4-2.3,2.7-2.7,4-4.2C202.6,124.7,204.4,125.6,204.4,126.3z M197.8,115.4c0.4-0.9,1.2-2.8,2.8-2
		c0.6,0.3,2.1,0.9,1.6,2.2c-0.4,0.9-1.2,1.7-1.5,3.2C199.4,117.6,196.9,117.7,197.8,115.4z M191.6,119.1c0.2,2.2,1.2,2.7,2.7,1.7
		c1.7-1.2,2.5,0.4,3.2,1.1c0.8,0.8-0.6,1.4-1.1,2c-2.4,2.4-4.4,2.4-6.3-0.3C189.3,122.4,189.9,120.6,191.6,119.1z M187.8,128.1
		c0.5-0.3,0.8,0,1.2,0.2c0.7,0.6,1.5,1.1,2.2,1.7c-1.1,1.4-2,2.7-3.2,3.7c-0.4,0.4-0.9-0.3-1.2-0.7
		C186.4,132.6,187.3,128.5,187.8,128.1z M184.1,139.7c1.5,1.1,2.2,4.1,4.3,1c0.4-0.7,0.9,0.1,1.3,0.3c1,0.6,1.9,1.2,3.1,2
		c-0.8,0.7-2,0.1-2.1,1.3c-0.3,2.7-1.6,1.3-2.7,0.7c-1.3-0.7-1.9-2.4-3.8-2.7C183.2,142.2,184.5,140.8,184.1,139.7z M183,148
		c0.9-1.1,1.3-1,3.8,1.2c-2.4,2.1-2.4,2.1-3,4.4C181.6,152.1,181.3,150.1,183,148z M181.7,159c1.9,1.8,4.5,2.4,6.5,4.3
		c0.8,0.8,0.9,1.1,0,1.8c-2.3,1.9-4,1.7-5.4-0.9C182,162.6,179.9,161.3,181.7,159z M186,185.3c-0.2,0-0.4,0-0.6,0
		c-0.3-1.4-2.3-2.1-1.5-4.4C184.9,182.4,188.1,182.3,186,185.3z M187.5,178.7c-2.7-1.8-2.8-2.3-0.7-4.7c0.9,0.4,0.1,2.5,1.9,1.4
		c0.2-0.1,1.2,0.2,1.3,1c0.1,1-0.3,1.9-0.9,2.6C188.6,179.7,188,179,187.5,178.7z M189,188c0.1-0.8,1-1.6,1.8-1.6
		c0.5,0,1.3,0.5,1.4,1.4c-0.5,0.7-0.8,1.7-1.9,1.5C189.9,189.2,188.9,188.8,189,188z M190.5,201.7c-1-0.3-1.5-1.7-1.2-2
		c1-1.2,2.2-2.2,3.5-3c0.1-0.1,1.4,0.5,1.5,1.3C194.3,199.2,191.4,201.9,190.5,201.7z M193.3,182.5c0.2-0.9,0.6-2.4,1.5-2.5
		c1-0.1,1.3,1.3,1.3,2.3c0,0.8-0.2,1.6-1.3,1.6C194.2,183.6,193.1,183.4,193.3,182.5z M200.9,203.9c-1.1,0.8-2.2,1.7-2.7,3.2
		c-1.3-0.8-2.5-1.2-3.1-2c-0.8-1,0.6-1.4,1.2-2c1.2-1.3,2.2-3.9,4.7-1.3C201.7,202.6,201.8,203.3,200.9,203.9z M199.7,186.7
		c-0.1-0.9,0.7-1.6,1.4-1.7c1.2-0.2,1.2,1.3,2,1.7c-0.4,0.9-0.8,1.9-1.6,1.9C200.6,188.6,199.7,187.8,199.7,186.7z M201.7,196.4
		c0-0.6,0.6-1.4,1.5-1.8c0.5,1.3,2.4,1.1,2.6,2.4c0.1,0.8-0.7,1.4-1.7,1.1C203.2,197.8,201.7,197.9,201.7,196.4z M207,220.5
		c-0.2,0.4-1,1.8-2,0.9c-1.4-1.2,0.9-1.7,0.6-2.9C206.2,219.1,207.6,219.3,207,220.5z M208.2,208.2c-1.3,0.9-2.5,1.8-3.3,3.3
		c-0.1,0.2-0.4,0.3-1,0.9c-0.5-0.7-1.5-1.5-1.4-2.1c0.2-1.6,1.5-2.7,2.6-3.8c0.8-0.8,1.5-0.9,2.6-0.5
		C209.3,206.6,209.2,207.5,208.2,208.2z M211.3,227.1c-0.2-1.4-3.8-0.9-1.8-3.1c0.7-0.8,1.2-1.6,2.7-0.4
		C214.4,225.6,211.6,226,211.3,227.1z M212,215.6c0,0.5-0.5,0.7-1,0.7c-0.9-0.2-1.8-1.1-1.7-1.7c0.2-1.8,1.7-3,3-4.1
		c0.9-0.8,1.9-0.3,2.7,0.4c0.5,0.4,1.1,0.9,0.9,1.4c-0.3,0.6-1,1.5-1.4,1.4C212.8,213.5,212.1,214,212,215.6z M219.9,231.6
		c-0.6,0.9-1.9,1.2-3,0.4c-0.6-0.4-1.1-0.9-1.9-1.5c1.3-0.3,1.8-2.8,3.5-0.7C219,230.4,220.6,230.6,219.9,231.6z M220.9,218.6
		c-1.1,1.3-2.8,1.8-3.7,3.5c-0.6-1.3-1.9-0.8-2.3-1.8c-0.4-1,0.5-1.2,0.9-1.7c0.8-1,1.7-1.8,2.5-2.7c0.9-0.9,1.8-0.7,2.5,0.1
		C221.6,216.8,221.7,217.6,220.9,218.6z M223.6,235.8c0-0.1,0.3-0.5,0.4-0.5c0.8-0.1,1.1,0.4,1.3,1.3
		C224.4,236.5,223.9,236.4,223.6,235.8z M224.3,228.1c-1.4-0.5-3-2.1-2.8-3c0.4-1.5,1.8-3.4,3.6-3.6c0.6-0.1,2.1,1.7,2.5,2.9
		C227.5,225.9,225.2,228.4,224.3,228.1z M233.1,229.9c-0.8,1.4-1.6,3.2-3.8,3.2c-0.5-0.2-1.4,0.3-1.4-0.9c0-0.8,2.8-4.1,3.6-3.9
		C232.2,228.5,233.5,229.1,233.1,229.9z M238.5,237.9c-2.1,2-3.3,0.2-4.7-0.9c-0.7-0.6-0.3-1.2,0.3-1.5c1.3-0.8,2.1-3,4.2-1.7
		c1.1,0.6,2,1.4,3.1,2.2C240.4,236.7,239.3,237.2,238.5,237.9z M246,241.5c-0.7,1-1,2.1-0.7,3.7c-1-0.5-1.5-0.8-2.1-1
		c-1-0.4-1.2-1.4-1.8-2.2c1.1-0.9,2.2-1.8,3.4-2.5C245.2,239.4,246.9,240.2,246,241.5z M246.3,231.5c-1.5,2.1-3.3,0.2-4.1-0.7
		c-1.5-1.8,1.2-2,1.9-3.1C244.4,229.3,248,229.1,246.3,231.5z M247.1,224.6c0-1,1.4-2.6,2.6-2.5c1.6,0.2,1.9,2.3,2.9,3.4
		c0.3,0.3-2.1,1.1-2.5,2.3C248.4,227.2,247.1,226,247.1,224.6z M251.8,237.3c-1.9,1.8-1.7-1.6-3.1-1.3c1.1-0.7,1.4-3.2,3.5-1.3
		C253.5,236,252.4,236.7,251.8,237.3z M256.3,215.9c1.9-1.6,2.5,0.9,3.7,1.3c1.4,0.4,0,1.3-0.4,1.8c-2.2,2.8-2.3,2.8-6.8,0.2
		C254.1,218,255.1,216.9,256.3,215.9z M254,230.9c-0.1-0.4,3.3-3.6,3.8-3.6c0.3,0,2.9,3.2,2.7,3.4c-1.2,1-2.4,2-3.6,3
		C255.6,232.9,254.5,232.2,254,230.9z M259.5,244.2c-1-1-1.4-2.3-2.9-2.5c-0.3,0-1-0.1-0.7-0.7c0.2-0.4,0.9-1,1.1-1
		c1.2,0.5,2.5,1,3.4,1.9C261.1,242.6,259.9,243.4,259.5,244.2z M263.5,222.5c1-1.8,2.3-1.8,3.7-0.6c0.7,0.6,2.8,0.4,1.9,2
		c-1.6,3-4.1,4.3-5.6,3.2c-1-0.7-2.1-1.2-2.8-2.4C261.6,224,262.9,223.7,263.5,222.5z M267.1,237c-0.5,0.4-0.7,1-1,1.5
		c-0.6,0.7-1.3,1.4-2.1,0.2c-0.6-1-1.6-1.5-2.9-1.9c1.4-1.2,2.5-2,3.5-2.8c1.1-0.9,1.9-0.6,2.7,0.3
		C268.1,235.2,268.2,236.1,267.1,237z M271.2,228.8c1.2-1.9,2.9-1.9,4.4-0.2c0.2,0.2,0.4,0.6,0.4,0.6c-1.3,1.2-2.6,2.4-3.9,3.5
		c-1,0.9-1.5-0.2-2.2-0.7c-0.4-0.3-0.8-0.6-1.3-1.1C269.4,229.8,270.5,229.8,271.2,228.8z M270.8,243.3c-0.8-0.3-1.9-1-1.7-1.5
		c0.4-1.2,1.7-2,2.9-2.6c0.7-0.3,0.5,0.7,1,0.8C272.1,241,272.7,242.9,270.8,243.3z M277.2,246.8c-0.6,0-1.7-0.1-1.6-0.9
		c0.1-1,1.2-1.2,2.1-1c0.9,0.3,1.7,0.8,2.7,1.2C279.5,247.6,278.3,246.8,277.2,246.8z M278.3,237c-1,0.5-1.9,0.3-2.6-0.6
		c-0.1-0.1-0.2-0.3-0.3-0.4c0-0.3,3.1-3.4,3.5-3.4c0.2,1.4,2.2,0,2.2,1.2C281,235.4,279.7,236.3,278.3,237z M284.8,241.5
		c-1,2.1-2.1,0.8-3.1,0c-1.7-1.3,0.2-1.8,0.7-2.3c1.7-1.8,1.8-1.7,5.2,0.4C286.6,240.4,285.3,240.4,284.8,241.5z M287.9,246.8
		c1.4-4.4,2.6-4.8,7.2-2.2C292.6,245.2,290.2,245.7,287.9,246.8z M291.1,236.5c-0.4-0.1-0.8-0.2-1.2-0.5c-0.8-0.6-1.5-1.2-2-1.7
		c1.1-1.2,2.1-2.4,3.3-3.5c0.7-0.7,1.6-1.2,2.5-1.6c1.7-0.6,3.2,0.4,3.9,1.6c0.8,1.2-1,1.5-1.7,2.2
		C294.4,234.5,291.6,233.9,291.1,236.5z M298.6,240.5c-1,0.3-1.8-0.4-2.3-1c-0.6-0.8,0.5-1.1,0.9-1.6c0.4-0.6,1-1,1.5-1.5
		c1.4-1.7,3-2.2,5-0.4c-0.9,1-1.9,1.7-2.4,2.9C300.8,239.8,299.6,240.2,298.6,240.5z M307.9,242.4c-1.7,0.4-3.4,0.5-5.8,0.9
		c1.3-1.2,2.1-2,3-2.7c0.5-0.4,1.2-0.7,1.9-0.9c1.7-0.6,2.7,0.9,2.9,1.9C310.3,243.2,308.6,242.2,307.9,242.4z M310,224.9
		c0.6-0.6,1.6-0.9,2.1-0.3c0.7,0.7,1.7,0.8,2.5,1.7c-1.3,1.2-2.6,2.2-4,0.3C310.3,226,309.2,225.7,310,224.9z M312,237.2
		c-0.4-0.3-1.1-0.4-1-1c0.2-1.1,1-1.9,2.1-2.1c0.7-0.1,1.7,0.7,1.7,1.4C314.7,237.3,312.6,236.1,312,237.2z M314.3,220.9
		c0.7-0.8,1.1-2.2,2.5-1.7c1.3,0.5,1.7,2.4,1,4C317,221.9,315.5,221.8,314.3,220.9z M316.1,239.8c1.4-0.9,1.7-2.1,3-1.8
		c0.2,0,0.4,0.4,0.6,0.5C318.8,239.2,318,239.9,316.1,239.8z M319.1,215.5c1.6,0.2,2.1-3.4,4-1.1c0.9,1.1,1.5,2.6,0.1,3.5
		C321,219.2,320.3,216.8,319.1,215.5z M321.4,226.1c-0.1-0.7,0.5-1,1.1-1.2c0.9-0.2,1.1,0.5,1.4,1c0,0.8-0.3,1.3-0.9,1.1
		C322.4,226.9,321.5,226.8,321.4,226.1z M322.8,234.9c-0.4-0.5-1.1-0.6-0.3-1.5c1.8-2.1,2.6,0.4,3.9,0.8
		C325.1,234.4,324.4,237.3,322.8,234.9z M329.2,232.5c-1.2-0.6-2-1.5-2.7-2.6c-0.2-0.3,0.2-0.8,0.7-1c1.2,0.8,2.1,1.6,2.6,2.9
		C329.9,232.2,329.4,232.6,329.2,232.5z M327,223.3c-0.2,0.2-1.3-1.3-1.1-1.8c0.4-1.3,1.7-2.1,3-2.4c0.9-0.2,0.9,0.8,1.1,1.6
		C329.8,222.4,327.9,222.3,327,223.3z M328.4,213c-0.5,0.3-4.4-2.7-4.1-3c0.6-1,1.6-2.1,2.6-1.9c1.7,0.2,2.2,2.2,3.5,3.2
		C329.7,211.8,329.1,212.5,328.4,213z M328.1,198.3c0.7-0.2,1,0.1,1.3,0.6c0.6,0.7-0.1,0.8-0.5,1.1c-0.8,0.6-1.6,1.1-2.4,1.7
		C325.7,199.8,326.1,198.8,328.1,198.3z M330.4,189.7c-0.3,0.7-0.5,1.9-1.7,1.6c-0.6-0.1-1.6-0.4-1.4-1.3c0.2-0.9,1.1-1.3,1.9-1.6
		C329.9,188.6,330.6,189,330.4,189.7z M328.3,181.8c-1.3-0.4-2.2-1.5-2.5-2.9c-0.4-1.8,1.6-1.7,2.5-2.6c0.5-0.6,1.5-0.5,1.8,0.6
		c0.3,1.1,1.5,1.4,2.2,2.2c-0.6,0.5-1.5,0.5-1.9,1.3C330,181.3,329.2,182.1,328.3,181.8z M334.5,226.4c-1.4,2-2.3,0.2-3.5-0.2
		c1.1-0.4,1.2-2.6,2.9-1.7C334.5,224.8,335.2,225.4,334.5,226.4z M333.9,217.3c-1.7,1.6-1.7-0.9-2.8-1c1.3-1.4,2.7-1.9,3.9-0.7
		C335.8,216.4,334.3,216.8,333.9,217.3z M333.8,208c-1.4-0.3-2.6-1.7-3.3-3.2c-0.1-0.3,1.1-2.2,2.9-1.7c1.8-0.5,1.8,1.9,3.1,2.3
		C335.7,206.4,334.8,208.2,333.8,208z M338.3,222.2c-0.5,0.2-1-0.7-1.1-1.2c-0.2-1,0.8-1.5,1.4-2c0.8,0,1.1,0.6,1.1,1.2
		C339.7,221.1,339,221.9,338.3,222.2z M338.8,213.5c-0.2,0.1-2.3-1.1-2-2.1c0.3-1.2,1.4-2.3,2.9-2.3c0.8,0,2,0,2.3,1.3
		C341.1,211.7,340.1,212.8,338.8,213.5z M344.9,215.5c-0.4,0.9-1.1,0.9-2.2,0.7c0.6-0.9,1.1-1.5,2-1.4
		C344.8,214.9,345,215.4,344.9,215.5z M347.9,206.3c-2.3,1.7-3.1,1.5-4.7-0.9c-0.5-0.8-0.4-1,0.4-1.6c2.4-1.7,4.2-1.1,5.9,1.3
		C348.9,205.6,348.4,205.9,347.9,206.3z M354.5,202.2c-0.7,0.7-1.2,0-1.8-0.5c-2.7-1.9-2.7-2.3,0.2-5c0.7,1.2,1.3,2.2,1.9,3.1
		C355.4,200.8,355.1,201.6,354.5,202.2z M353.6,190.2c-2.7,1.7-2.5-2.1-4.3-2.5c2,0.2,2-4.2,4.7-2
		C356.2,187.4,355.4,189.1,353.6,190.2z M359.8,192.2c-0.6,0.9,0.1,2.9-1.5,3c-0.9,0.1-2.8-1-2.6-2.1c0.2-1.2,1.6-2.3,3.1-2.5
		C360.2,190.5,359.8,191.4,359.8,192.2z M358.2,183.6c-0.7,0.6-1.5-1.2-1.4-1.7c0.2-1.5,1.3-2.5,2.8-2.6c0.8-0.1,2.2-0.1,2.5,1.7
		C361.5,182.5,359.5,182.6,358.2,183.6z M363.4,168.2c-0.1,0.6,0,1.8-0.7,1.9c-2.2,0.1-2.5,2-3.6,3.4c-0.9-1.1-2.6-1.8-1.5-3.3
		c1.1-1.4,1.8-3.8,4.5-2.9C362.6,167.5,363.6,167.3,363.4,168.2z"/>
	<path d="M242.6,155.8c0,2.6-2,4.5-4.6,4.5c-2.6,0-4.6-2-4.5-4.6c0-2.5,2.2-4.6,4.6-4.6C240.6,151.2,242.6,153.3,242.6,155.8z"/>
	<path d="M254.4,137.7c0,2.5-2.1,4.6-4.5,4.7c-2.4,0.1-4.6-2.1-4.6-4.6c0-2.6,1.9-4.6,4.5-4.6C252.3,133.2,254.3,135.1,254.4,137.7z
		"/>
	<path d="M256.9,182.7c0.1-2.6,2-4.5,4.7-4.4c2.6,0.1,4.6,2.1,4.5,4.7c-0.1,2.4-2.3,4.6-4.7,4.5
		C258.8,187.4,256.9,185.3,256.9,182.7z"/>
	<path d="M268.7,151c0.1-2.6,2.1-4.4,4.7-4.3c2.5,0.1,4.5,2.2,4.5,4.7c-0.1,2.4-2.2,4.5-4.7,4.5C270.5,155.9,268.6,153.8,268.7,151z
		"/>
	<path d="M280.3,134.2c-0.1-2.5,2-4.6,4.6-4.6c2.5,0,4.7,2,4.7,4.5c0,2.4-2.1,4.6-4.6,4.6C282.5,138.8,280.4,136.8,280.3,134.2z"/>
	<path d="M292,169.1c0.1-2.4,2.4-4.5,4.8-4.4c2.5,0.1,4.6,2.2,4.5,4.7c0,2.4-2.2,4.6-4.6,4.6C294.1,173.9,291.9,171.6,292,169.1z"/>
	<path d="M303.7,158.6c-0.1-2.5,2.2-4.8,4.7-4.7c2.5,0.1,4.5,2.1,4.5,4.7c0,2.6-1.9,4.5-4.5,4.5
		C305.9,163.1,303.8,161.1,303.7,158.6z"/>
	<path d="M233.5,155.7c0-2.5,2.2-4.6,4.6-4.6c2.5,0,4.5,2.2,4.5,4.7c0,2.6-2,4.5-4.6,4.5C235.4,160.3,233.4,158.3,233.5,155.7z"/>
	<path d="M245.2,137.8c0-2.6,1.9-4.6,4.5-4.6c2.6,0,4.6,1.9,4.7,4.5c0,2.5-2.1,4.6-4.5,4.7C247.4,142.4,245.2,140.3,245.2,137.8z"/>
	<path d="M256.9,182.7c0.1-2.6,2-4.5,4.7-4.4c2.6,0.1,4.6,2.1,4.5,4.7c-0.1,2.4-2.3,4.6-4.7,4.5
		C258.8,187.4,256.9,185.3,256.9,182.7z"/>
	<path d="M268.7,151c0.1-2.6,2.1-4.4,4.7-4.3c2.5,0.1,4.5,2.2,4.5,4.7c-0.1,2.4-2.2,4.5-4.7,4.5C270.5,155.9,268.6,153.8,268.7,151z
		"/>
	<path d="M280.3,134.2c-0.1-2.5,2-4.6,4.6-4.6c2.5,0,4.7,2,4.7,4.5c0,2.4-2.1,4.6-4.6,4.6C282.5,138.8,280.4,136.8,280.3,134.2z"/>
	<path d="M292,169.1c0.1-2.4,2.4-4.5,4.8-4.4c2.5,0.1,4.6,2.2,4.5,4.7c0,2.4-2.2,4.6-4.6,4.6C294.1,173.9,291.9,171.6,292,169.1z"/>
	<path d="M303.7,158.6c-0.1-2.5,2.2-4.8,4.7-4.7c2.5,0.1,4.5,2.1,4.5,4.7c0,2.6-1.9,4.5-4.5,4.5
		C305.9,163.1,303.8,161.1,303.7,158.6z"/>
	<path class="st1" d="M291.6,196.3c0,1.1-0.1,2.1-0.9,3c-3,1.9-6.3,2.8-9.8,3.3h0c-0.4,0.1-0.7,0.2-1,0.1c-1.2,0-1.6-1-1.7-2.3
		c-0.1-0.7-0.1-1.4-0.1-2.1c0-12.2,0-24.5,0-36.7c0-1.3-0.2-2.6,0.6-3.8c0.1-0.1,0.1-0.2,0.2-0.3c0-5,0.1-10,0-14.9
		c0-1.8,0.5-2.3,2.2-2.2c2.4,0.1,4.8,0.2,7.2,0c1.9-0.1,2.4,0.5,2.4,2.4c-0.1,9.9,0,19.8,0,29.6c0,1.1,0,2.1,0.1,3.2
		c0.1,0.2,0.2,0.3,0.3,0.5c0.4,0.8,0.5,1.7,0.5,2.6C291.7,184.5,291.7,190.4,291.6,196.3z"/>
	<path class="st2" d="M256,200.1c0,0.2-0.1,0.5-0.1,0.7c-0.1,0.5-0.2,1-0.4,1.5c-2.4-0.4-3.7-2.6-5.8-3.4c-2.4-0.9-3.5-3.2-5.5-4.5
		c-0.2-0.4-0.3-0.7-0.4-1.1c-0.1-0.2-0.1-0.4-0.1-0.6c-0.1-0.7-0.2-1.4-0.1-2.2c0-8.6-0.4-17.1,0.1-25.7c0-0.4,0-0.9,0.1-1.3
		c0-0.3,0-0.6,0-1c0-0.3,0-0.6,0-0.9c0-0.4,0-0.8,0-1.3c0-0.8,0-1.6,0-2.4v0c0-4.6-0.1-9.3,0.5-13.9c3-0.1,6.1,0,9.1-0.2
		c2-0.1,2.3,0.7,2.3,2.5c-0.1,12.4,0,24.8,0,37.2c0,1.8,0,3.6,0,5.3c0,0.2,0.1,0.3,0.1,0.5c0.1,0.3,0.1,0.7,0.2,1
		c0,0.3,0.1,0.5,0.1,0.8C256.4,194.2,256.5,197.2,256,200.1z"/>
	<path class="st3" d="M280.9,202.6c-0.3,0.1-0.7,0.1-1,0.1c-3.3,0.4-6.7,0.1-10,0.9c-1.1,0.3-1.9-0.7-2.7-1.4c-1.2-4.3-1.4-8.7,0-13
		c0,0,0-0.1,0-0.1c0-9.7,0.1-19.3,0-29c0-2.1,0.6-2.8,2.7-2.6c3,0.2,6,0.1,9.1,0.1v0.2c0,14.1,0,28.2,0,42.3
		C279,201.4,278.9,202.8,280.9,202.6z"/>
	<path class="st4" d="M243.7,193.4c0,0.2-0.1,0.4-0.1,0.6c-6.1-2.4-9.6-6.9-11-13.4c1.1-0.1,2.4,0.9,2.9-0.9
		c0.5-1.7-0.5-2.2-1.7-2.8c-0.7-0.3-1.5-0.6-1.9-1.4c0.6-3.5,0.1-7,0.3-10.5c0-1,0.1-1.9,0.2-2.9c3.1-0.4,6.2,0,9.3-0.2
		c0.6,0,1.1,0,1.4,0.2c0.2,0.1,0.4,0.3,0.5,0.5c0.2,0.4,0.3,0.9,0.3,1.6c-0.1,7.1,0,14.2-0.1,21.3
		C243.9,188.2,244.3,190.8,243.7,193.4z"/>
	<path class="st5" d="M314.6,174.8c-0.5,5.2-3.7,8.8-6.9,12.5c-0.4,0.5-0.9,0.3-1.4,0.4c-1.7,0.3-3.6,0.5-3.1,3.1
		c0.1,0.6-0.1,1-0.6,1.3c-0.1-0.1-0.3-0.3-0.3-0.4c-0.7-5.3-1.1-10.5,0.1-15.8c0-0.2,0.1-0.3,0.1-0.5c0-3,0.1-6,0-9.1
		c0-1.4,0.3-1.9,1.8-1.9c2.7,0.1,5.3,0.1,8,0c1.5,0,2,0.4,2,2C314.3,169.3,313.9,172.1,314.6,174.8z"/>
	<path class="st6" d="M302.6,192.2c-3,2.2-5.5,5.2-9.1,6.6c-0.9,0.4-1.7,0.9-2.7,0.5c0-7.8,0.1-15.6,0.1-23.4v-0.4h11.6v0.5
		C302.5,181.4,302.5,186.8,302.6,192.2z"/>
	<path class="st7" d="M301.3,169.4c0,2.4-2.2,4.6-4.6,4.6c-2.5,0-4.8-2.4-4.7-4.8c0.1-2.4,2.4-4.5,4.8-4.4
		C299.2,164.7,301.3,166.9,301.3,169.4z"/>
	<path class="st8" d="M289.6,134.1c0,2.4-2.1,4.6-4.6,4.6c-2.5,0-4.6-2-4.7-4.5c-0.1-2.5,2-4.6,4.6-4.6
		C287.4,129.6,289.5,131.6,289.6,134.1z"/>
	<path class="st9" d="M277.9,151.4c-0.1,2.4-2.2,4.5-4.7,4.5c-2.7,0-4.6-2.1-4.5-4.8c0.1-2.6,2.1-4.4,4.7-4.3
		C275.8,146.8,277.9,149,277.9,151.4z"/>
	<path class="st10" d="M312.9,158.5c0,2.6-1.9,4.5-4.5,4.5c-2.5,0-4.6-2-4.7-4.5c-0.1-2.5,2.2-4.8,4.7-4.7
		C310.9,153.9,312.9,155.9,312.9,158.5z"/>
	<path class="st0" d="M266.1,182.9c-0.1,2.4-2.3,4.6-4.7,4.5c-2.6-0.1-4.5-2.1-4.4-4.7c0.1-2.6,2-4.5,4.7-4.4
		C264.2,178.3,266.2,180.4,266.1,182.9z"/>
	<path class="st11" d="M254.4,137.7c0,2.5-2.1,4.6-4.5,4.7c-2.4,0.1-4.6-2.1-4.6-4.6c0-2.6,1.9-4.6,4.5-4.6
		C252.3,133.2,254.3,135.1,254.4,137.7z"/>
	<path class="st12" d="M242.6,155.8c0,2.6-2,4.5-4.6,4.5c-2.6,0-4.6-2-4.5-4.6c0-2.5,2.2-4.6,4.6-4.6
		C240.6,151.2,242.6,153.3,242.6,155.8z"/>
	<path d="M1707.1,110.2c0-9.6,0-19.1,0-28.6c0-5-3-8.1-8-8.1c-13.2,0-26.4,0-39.6,0c-4.8,0-7.8,3-8,7.8c-0.1,1.3,0,2.5,0,4.5
		c-4.3-5.2-9-8.5-14.3-10.9c-13.6-6.3-27.9-7.3-42.4-4.9c-27.2,4.5-46.2,20.4-58.2,44.7c-7.6,15.5-9.4,32.2-8.1,49.3
		c1.7,22.7,10.4,42,27.3,57.4c17.8,16.2,39,22.1,62.6,19c12.1-1.6,22.8-6.5,31.7-15.9c0,3.9,0.2,7.5,0,11
		c-0.9,15.4-10.3,25.9-25.4,28.7c-16.4,3-30.5-1.5-42.6-12.7c-5.4-5-9.1-5.3-15.3-1.2c-9.1,6-18.1,12-27.1,18.1
		c-1.2,0.8-2.4,1.6-3.4,2.6c-4.2,3.9-4.5,8.6-0.9,13.1c2.2,2.8,4.8,5.3,7.5,7.6c15.2,12.8,33.2,19.1,52.5,22.2
		c3.8,0.6,7.7,0.3,11.4,1.6h3.2c3.2-0.6,6.4-0.1,9.6-0.3c0,0,0.1,0,0.1,0c0.1,0,0.1,0,0.2,0c1,0,2.1,0.2,3.1-0.2
		c8.8-0.6,17.6-1.8,26-4.4c21.4-6.6,38.5-18.8,49.2-38.8c6.9-12.8,9-26.7,9-41.1C1707.1,190.5,1707.1,150.4,1707.1,110.2z
		 M1618,188.5c-18.4,0-33-14.9-32.9-33.6c0.1-18.8,14.6-33.4,33.1-33.3c18.4,0,33,14.9,32.9,33.6
		C1651,173.9,1636.4,188.6,1618,188.5z"/>
	<path d="M1908,227.1c0-48.2,0-96.5,0-144.7c0-1.1,0.2-2.1-0.2-3.2c-0.8-3.8-3.3-5.7-7.8-5.8c-13,0-26.1,0.2-39.1-0.1
		c-6.7-0.1-10.3,3.4-9.7,9.4c0,0.2-0.1,0.5-0.2,0.7c-0.9,0-1.3-0.7-1.8-1.2c-5.1-4.4-10.8-8-17.3-9.9c-23.4-7.1-45.5-3.7-65.5,9.9
		c-31.5,21.5-42.2,56-35.8,91.5c5.7,31.7,33.6,63.7,72.1,67c17.5,1.5,33.6-1.6,47.1-13.7c0.4-0.3,0.7-0.9,1.3-0.5
		c-0.5,7,4,10,9.9,9.8c12-0.3,24.1-0.3,36.1,0c4.9,0.1,8.7-1,10.9-5.6v-0.5C1907.8,229.3,1908,228.2,1908,227.1z M1819.2,188.5
		c-18.4,0-33-14.8-33-33.5c0-18.7,14.4-33.4,32.7-33.5c18.5,0,33,14.6,33.1,33.3C1852.1,173.7,1837.7,188.5,1819.2,188.5z"/>
	<path d="M11.2,203c2.4-5.2,7-8.4,11.2-11.8c3.8-3.1,7.6-6.2,11.4-9.3c5.7-4.5,9.8-4.8,15.8-0.7c5.1,3.5,10,7.1,15.5,9.9
		c8,4,16.4,6.6,25.4,6.5c3.5,0,6.9-0.5,10.1-2.1c2.5-1.3,4.5-3.1,4.6-6.1c0.1-3.1-1.5-5.2-4-6.8c-4.3-2.6-9.2-3.2-14-4.3
		c-12-2.7-24.2-4.2-36-8c-14.7-4.8-26.4-13.4-32-28.4C12,122.6,15.9,99,37.9,83.1c11.8-8.6,25.2-12.8,39.6-13.8
		c21.4-1.5,42.1,1.5,61.9,10.1c6.1,2.6,11.7,6,16.6,10.6c4.7,4.4,5.4,9,1.5,14c-5.6,7.1-11.9,13.5-18.3,19.9
		c-2.7,2.7-6.2,3.2-10,2.3c-2.7-0.7-5.1-2-7.6-3.3c-9.1-4.8-18.5-8.9-28.8-10c-4.7-0.5-9.3-0.5-13.7,1.3c-2.8,1.1-5.4,2.6-5.4,6.2
		c0,3.6,2.5,5.4,5.5,6.5c6.1,2.2,12.6,3,19,4.5c10.6,2.5,21.6,4,31.8,8.1c12.3,4.9,22.6,12.1,28.5,24.4c8.2,17,7.2,45.5-16.2,62.3
		c-10.7,7.7-22.7,11.9-35.5,13.7c-23.8,3.3-46.9,0.8-69.1-8.9c-2.3-1-4.5-2.1-6.7-3.3c-8.2-4.7-16.1-9.9-19.9-19.2
		C11.2,206.6,11.2,204.8,11.2,203z"/>
	<path d="M1908.3,230.3c-0.9-0.6-0.5-1.4-0.5-2.2c0-49.4,0-98.9,0-148.3c0-0.2,0-0.4,0.1-0.5c0.2,0.1,0.3,0.1,0.5,0.1
		C1908.3,129.6,1908.3,180,1908.3,230.3z"/>
	<path d="M1610,315.4c3.2-1.2,6.5-0.3,9.7-0.4c0.1,0.1,0.2,0.2,0.1,0.3c-0.1,0.1-0.1,0.1-0.2,0.1
		C1616.4,315.4,1613.2,315.4,1610,315.4z"/>
	<path d="M601.4-0.5c0,0.2,0,0.3,0,0.5c-2.3,1.4-4.7,1.4-7,0c0.1-0.2,0.1-0.3,0-0.5C596.8-0.5,599.1-0.5,601.4-0.5z"/>
	<path d="M1619.6,315.4c0-0.1,0-0.3,0-0.4c1.1,0,2.1,0,3.2,0c0,0.2,0,0.3,0,0.5C1621.8,315.4,1620.7,315.4,1619.6,315.4z"/>
	<path d="M1116.2,136.5c-5.4-32.2-35-67.8-79.9-67.6c-15,0-28.4,4.2-39.7,14.4c-0.2,0.1-0.4,0.2-0.7,0.3c-0.1-0.4-0.1-0.6-0.1-0.8
		c-0.2-7.1-2.5-9.3-9.7-9.3c-12.8,0-25.5,0-38.3,0c-6.3,0-8.9,2.6-8.9,9c0,70,0,140.1,0,210.1c0,6.3,2.7,8.9,9,8.9
		c12.8,0,25.7,0,38.6,0c6.8,0,9.3-2.5,9.3-9.4c0-21.9,0-43.7,0-66.1c1.2,1,2,1.7,2.8,2.3c0.9,0.7,1.8,1.5,2.7,2.2
		c14.2,10.5,30.3,12.2,47.2,9.7c22.6-3.2,40.2-14.9,53.4-33.2C1117.2,185.8,1120.5,161.9,1116.2,136.5z M1027.7,188.5
		c-18.4-0.1-32.8-14.9-32.7-33.7c0.1-18.8,14.5-33.3,33.1-33.2c18.3,0.1,32.7,14.9,32.6,33.6
		C1060.6,173.9,1046.1,188.6,1027.7,188.5z"/>
	<path d="M818.3,73.5c-12.2,0-24.5,0-36.7,0c-9.2,0-10.3,1-11.6,10.1c-1.5-1.2-2.9-2.4-4.4-3.5c-14.7-11-31.4-12.8-48.8-10.2
		c-22.7,3.5-40.1,15.6-53.2,34c-13.8,19.4-17.3,41.3-14.6,64.6c4.1,36.1,36.4,75.3,85.9,72.4c12.6-0.7,23.8-4.9,33.4-13.2
		c0.6-0.5,1-1.3,1.9-1.3c0.7,8,2.9,9.9,11.1,9.9c12.3,0,24.6,0,36.9,0c6.3,0,9.1-2.8,9.1-9.1c0-48.3,0-96.5,0-144.8
		C827.2,76.1,824.6,73.5,818.3,73.5z M738.2,188.5c-18.5,0-32.9-14.7-32.9-33.6c0-18.8,14.4-33.4,33-33.4
		c18.3,0,32.8,14.8,32.8,33.4C771.2,173.7,756.6,188.5,738.2,188.5z"/>
	<path d="M1313.4,80.9c-0.2-4.5-2.9-7.4-7.5-7.4c-14-0.1-28-0.1-42,0c-4.3,0-7.1,3-7.4,7.3c-0.1,0.9-0.1,1.8-0.2,3.1
		c-5.8-5.2-11.9-9.3-18.9-11.5c-24-7.3-46.7-3.7-66.9,10.8c-30.1,21.8-40.3,52.2-34.9,88.2c5.2,35.1,35,66.3,72.5,69.4
		c17.9,1.5,34.3-1.8,48.3-14.9c0,1.2,0,1.9,0,2.6c0.2,4.5,3.3,7.8,7.8,7.8c13.9,0.1,27.8,0.1,41.8,0c3.3,0,5.8-2,6.9-5
		c0.5-1.5,0.4-3,0.4-4.5c0-47.9,0-95.8,0-143.7C1313.5,82.3,1313.5,81.6,1313.4,80.9z M1224.2,188.5c-18.3-0.1-32.6-14.8-32.6-33.6
		c0-18.9,14.4-33.4,33-33.4c18.3,0,32.7,14.7,32.8,33.4C1257.4,173.8,1242.7,188.6,1224.2,188.5z"/>
	<path d="M1397.8,92.6c1.7-2.2,3-3.9,4.5-5.6c9.5-10.9,21.7-16.5,36-17.8c11.2-1,22.3-0.1,32.9,3.8c18.4,6.9,28.4,21,33.2,39.3
		c2.2,8.3,3.1,16.8,3.2,25.4c0.1,30.1,0,60.1,0,90.2c0,5.5-2.7,8.3-8.2,8.3c-13.5,0-27,0-40.4,0c-5.7,0-8.2-2.7-8.2-8.5
		c0-27.1,0-54.3,0-81.4c0-3.5-0.2-7-1.2-10.3c-2.9-10.1-11.7-17.1-22.3-17.8c-5-0.3-10,0.1-14.7,2.2c-9.7,4.6-14.6,12.4-14.7,23
		c-0.2,19-0.1,38-0.1,57c0,9.1,0,18.2,0,27.3c0,5.6-2.8,8.4-8.4,8.4c-13.4,0-26.8,0-40.2,0c-5.7,0-8.4-2.7-8.4-8.4
		c0-48.7,0-97.4,0-146.2c0-5.6,2.8-8.4,8.4-8.4c13.3,0,26.6,0,39.9,0c5.7,0,8.6,2.8,8.6,8.5C1397.8,85.3,1397.8,88.7,1397.8,92.6z"
		/>
	<path d="M471.9,68.9c20.8,0.1,40,5.2,56.8,18c9.5,7.2,16.5,16.4,21.3,27.3c2.8,6.3,0.7,11.7-6,13.8c-11.4,3.6-22.8,6.9-34.3,10.3
		c-4.2,1.2-7.9,0.3-11-2.9c-1-1-2-2-2.9-3.1c-9.1-10.4-20.8-13-33.5-9.4c-12.7,3.6-20.7,12.6-23,25.6c-3.2,17.6,6.4,33.8,22.6,38.4
		c13.2,3.7,25,1.2,34.1-9.6c4.8-5.7,10.2-7.3,17.3-4.9c9.7,3.3,19.6,6,29.4,9c8.2,2.5,10.5,7.7,6.8,15.4
		c-10.1,21.6-27.5,34.6-50,40.5c-26,6.9-51.6,5.3-75.2-8.8c-21.7-13-36.5-31.6-41.2-56.9c-10.2-55,28.2-89.9,62.1-99.3
		c4.2-1.2,8.5-2,12.8-2.6C462.6,69.1,467.2,68.9,471.9,68.9z"/>
	<path d="M854.7,121c0-35.2,0-70.3,0-105.5c0-7.2,2.4-9.5,9.6-9.6c12.8,0,25.5,0,38.3,0c6.3,0,8.9,2.7,8.9,9c0,70.8,0,141.5,0,212.3
		c0,6.3-2.8,9.1-9.1,9.1c-12.6,0-25.2-0.2-37.8,0.1c-6.4,0.1-10.2-3.3-10.1-10C854.8,191.3,854.7,156.2,854.7,121z"/>
	<path d="M626.3,154.8c0,24,0,48,0,72c0,7.1-2.5,9.6-9.7,9.6c-12.7,0-25.3,0-38,0c-6.5,0-9.2-2.7-9.2-9.3c0-48.1,0-96.2,0-144.2
		c0-6.6,2.8-9.4,9.5-9.4c12.7,0,25.3,0,38,0c6.8,0,9.4,2.6,9.4,9.3C626.3,106.8,626.3,130.8,626.3,154.8z"/>
	<path d="M594.4,0c2.3,0,4.7,0,7,0c15,1.2,27.8,14.8,28.4,29.6c0.7,17.6-14.3,30.1-26.9,31.6c-16.2,2-31.5-7.4-35.7-22.1
		C562,21,575.4,1.7,594.4,0z"/>
	<path d="M1844.6,269.2c11.2-10.8,22.1-10.5,29.2,1.1c0.6-0.8,1.2-1.5,1.8-2.3c5.2-6.2,13.8-8.5,21.3-5.4c5.9,2.4,9.1,7.1,9.7,13.3
		c1,9.7,0.3,19.4,0.4,29.1c0,2.1-1.2,3.6-3.5,3.5c-2.3-0.1-3.3-1.5-3.3-3.7c0-7.4,0-14.8,0-22.2c0-1.6-0.1-3.2-0.4-4.8
		c-1.1-6.6-4.9-10.1-11-10.2c-6.5-0.2-11.4,3.6-12.7,9.9c-0.3,1.6-0.5,3.4-0.5,5c-0.1,7.2,0,14.4,0,21.7c0,2.9-1.3,4.4-3.5,4.3
		c-2.1-0.1-3.3-1.5-3.3-4.3c0-7.3,0-14.6,0-21.9c0-1.7,0-3.4-0.3-5.1c-1.2-6.5-5.6-9.9-12.1-9.7c-6,0.2-11.1,4.9-11.9,11.4
		c-0.8,6.3-0.2,12.6-0.3,19c0,2.3,0,4.6,0,7c0,2.2-1,3.6-3.4,3.6c-2.3,0-3.4-1.4-3.4-3.6c0-3.6,0-7.1,0-10.7c0-9.5,0-18.9,0-28.4
		c0-2.5,1.3-4,3.3-4c2,0,3.3,1.5,3.4,3.9c0,0.8,0,1.6,0,2.4C1844.3,268.6,1844.1,269,1844.6,269.2z"/>
	<path d="M1801.5,261.4c-13.5-0.1-24.2,10.4-24.4,23.8c-0.2,13.4,10.3,24,23.7,24.2c13.4,0.1,24.1-10.5,24.2-24
		C1825.2,272.2,1814.8,261.5,1801.5,261.4z M1801.3,303.2c-9.6,0-17-7.7-17.1-17.8c-0.1-10.2,7.4-18.1,16.9-18
		c9.5,0.1,16.9,8,16.9,18C1818.1,295.6,1810.9,303.1,1801.3,303.2z"/>
	<path d="M1727.8,284.7c0.6-9.2,4.8-17,13.9-21.1c9-4,17.6-2.7,25.3,3.5c2.5,2,2.9,4,1.4,5.6c-1.4,1.6-3.3,1.4-5.6-0.6
		c-6.2-5.1-13.2-6.1-19.3-2.6c-6,3.4-9.6,11.1-8.5,18.3c1.2,8,6.1,13.6,13.4,15.1c5.9,1.2,11.1-0.7,15.5-4.7
		c0.9-0.8,1.8-1.8,3.3-1.4c1.2,0.4,2,1.2,2.3,2.4c0.4,1.4-0.4,2.4-1.3,3.3c-8.6,8.7-23.1,9.2-32.3,1
		C1730.5,298.6,1727.9,292.5,1727.8,284.7z"/>
	<path d="M1718.2,303.6c0,3.2-1.5,5-4.1,5.1c-2.8,0-4.4-1.9-4.3-5.2c0-3.1,1.7-5,4.3-5C1716.6,298.5,1718.2,300.4,1718.2,303.6z"/>
	<path d="M211.3,227.4c0-0.1,0-0.2,0-0.3C211.3,227.2,211.3,227.3,211.3,227.4z"/>
	<path d="M186,185.3c-0.2,0.2-0.4,0.2-0.6,0C185.6,185.3,185.8,185.3,186,185.3z"/>
	<line x1="200.9" y1="216" x2="200.9" y2="216"/>
	<path d="M186,185.3c-0.2,0-0.4,0-0.6,0"/>
</g>
</svg>
